<svg xmlns="http://www.w3.org/2000/svg" xmlns:xlink="http://www.w3.org/1999/xlink" width="100" zoomAndPan="magnify" viewBox="0 0 75 74.999997" height="100" preserveAspectRatio="xMidYMid meet" version="1.0"><defs><clipPath id="254b2aa1d7"><path d="M 3.339844 9 L 70.089844 9 L 70.089844 58 L 3.339844 58 Z M 3.339844 9 " clip-rule="nonzero"/></clipPath><clipPath id="7d7a794a10"><path d="M 22 65 L 51 65 L 51 73.5 L 22 73.5 Z M 22 65 " clip-rule="nonzero"/></clipPath><clipPath id="643a2ba364"><path d="M 3.339844 49 L 70.089844 49 L 70.089844 52 L 3.339844 52 Z M 3.339844 49 " clip-rule="nonzero"/></clipPath></defs><rect x="-7.5" width="90" fill="#ffffff" y="-7.5" height="89.999996" fill-opacity="1"/><rect x="-7.5" width="90" fill="#ffffff" y="-7.5" height="89.999996" fill-opacity="1"/><path fill="#212121" d="M 55.589844 46.476562 C 55.371094 46.476562 55.15625 46.414062 54.964844 46.292969 C 53.355469 45.25 52.199219 43.035156 51.652344 41.8125 C 50.796875 39.886719 50.285156 37.835938 50.285156 36.324219 C 50.285156 34.050781 50.9375 32.863281 51.933594 31.308594 C 52.144531 30.980469 52.507812 30.78125 52.898438 30.78125 L 57.234375 30.78125 C 57.597656 30.78125 57.941406 30.953125 58.15625 31.246094 C 59.050781 32.460938 59.613281 33.683594 59.820312 34.875 C 59.933594 35.53125 59.9375 36.144531 59.832031 36.710938 C 59.714844 38.082031 59 39.15625 58.367188 40.105469 C 58.214844 40.335938 58.066406 40.554688 57.929688 40.78125 C 56.984375 42.300781 56.917969 43.238281 56.839844 44.324219 C 56.8125 44.695312 56.785156 45.078125 56.726562 45.492188 C 56.667969 45.878906 56.417969 46.210938 56.0625 46.375 C 55.914062 46.441406 55.75 46.476562 55.589844 46.476562 Z M 53.53125 33.078125 C 52.90625 34.101562 52.582031 34.871094 52.582031 36.324219 C 52.582031 37.511719 53.027344 39.257812 53.75 40.878906 C 54.050781 41.550781 54.378906 42.160156 54.714844 42.6875 C 54.875 41.816406 55.207031 40.8125 55.980469 39.566406 C 56.136719 39.3125 56.300781 39.070312 56.457031 38.832031 C 57.011719 38 57.492188 37.277344 57.546875 36.480469 C 57.550781 36.402344 57.5625 36.339844 57.574219 36.296875 C 57.640625 35.960938 57.75 34.800781 56.632812 33.078125 Z M 59.835938 36.636719 Z M 59.835938 36.636719 " fill-opacity="1" fill-rule="evenodd"/><path fill="#212121" d="M 57.234375 33.078125 C 57.15625 33.078125 57.078125 33.070312 57 33.054688 C 56.378906 32.925781 55.980469 32.316406 56.109375 31.695312 L 56.648438 29.109375 L 53.484375 29.109375 L 54.023438 31.695312 C 54.152344 32.316406 53.753906 32.925781 53.132812 33.054688 C 52.515625 33.183594 51.90625 32.785156 51.777344 32.164062 L 50.949219 28.195312 C 50.878906 27.859375 50.964844 27.503906 51.183594 27.238281 C 51.398438 26.96875 51.726562 26.8125 52.074219 26.8125 L 58.058594 26.8125 C 58.40625 26.8125 58.734375 26.96875 58.949219 27.238281 C 59.167969 27.503906 59.253906 27.859375 59.183594 28.195312 L 58.355469 32.164062 C 58.242188 32.707031 57.765625 33.078125 57.234375 33.078125 Z M 57.234375 33.078125 " fill-opacity="1" fill-rule="evenodd"/><path fill="#212121" d="M 58.058594 29.109375 C 57.445312 29.109375 56.933594 28.621094 56.914062 28 L 56.085938 3.359375 C 56.085938 3.347656 56.085938 3.332031 56.085938 3.320312 C 56.085938 2.757812 55.628906 2.300781 55.066406 2.300781 C 54.503906 2.300781 54.046875 2.757812 54.046875 3.320312 C 54.046875 3.332031 54.046875 3.347656 54.046875 3.359375 L 53.21875 28 C 53.199219 28.632812 52.667969 29.128906 52.035156 29.109375 C 51.402344 29.089844 50.90625 28.558594 50.925781 27.921875 L 51.753906 3.300781 C 51.761719 1.480469 53.246094 0.00390625 55.066406 0.00390625 C 56.886719 0.00390625 58.371094 1.480469 58.378906 3.300781 L 59.207031 27.921875 C 59.230469 28.558594 58.734375 29.089844 58.097656 29.109375 C 58.085938 29.109375 58.074219 29.109375 58.058594 29.109375 Z M 58.058594 29.109375 " fill-opacity="1" fill-rule="evenodd"/><g clip-path="url(#254b2aa1d7)"><path fill="#212121" d="M 66.648438 57.902344 L 6.78125 57.902344 C 4.890625 57.902344 3.347656 56.359375 3.347656 54.464844 L 3.347656 12.753906 C 3.347656 10.859375 4.890625 9.320312 6.78125 9.320312 L 52.660156 9.320312 C 53.292969 9.320312 53.808594 9.832031 53.808594 10.46875 C 53.808594 11.101562 53.292969 11.617188 52.660156 11.617188 L 6.78125 11.617188 C 6.15625 11.617188 5.644531 12.125 5.644531 12.753906 L 5.644531 54.464844 C 5.644531 55.09375 6.15625 55.605469 6.78125 55.605469 L 66.648438 55.605469 C 67.273438 55.605469 67.785156 55.09375 67.785156 54.464844 L 67.785156 12.753906 C 67.785156 12.125 67.273438 11.617188 66.648438 11.617188 L 57.472656 11.617188 C 56.839844 11.617188 56.324219 11.101562 56.324219 10.46875 C 56.324219 9.832031 56.839844 9.320312 57.472656 9.320312 L 66.648438 9.320312 C 68.539062 9.320312 70.082031 10.859375 70.082031 12.753906 L 70.082031 54.464844 C 70.082031 56.359375 68.539062 57.902344 66.648438 57.902344 Z M 66.648438 57.902344 " fill-opacity="1" fill-rule="evenodd"/></g><path fill="#212121" d="M 30.457031 68.082031 C 30.355469 68.082031 30.253906 68.066406 30.15625 68.039062 C 29.542969 67.875 29.183594 67.242188 29.347656 66.628906 L 32.125 56.449219 C 32.292969 55.839844 32.921875 55.476562 33.535156 55.644531 C 34.144531 55.8125 34.503906 56.441406 34.339844 57.054688 L 31.5625 67.234375 C 31.425781 67.746094 30.960938 68.082031 30.457031 68.082031 Z M 30.457031 68.082031 " fill-opacity="1" fill-rule="evenodd"/><path fill="#212121" d="M 42.972656 68.082031 C 42.46875 68.082031 42.003906 67.746094 41.867188 67.234375 L 39.101562 57.089844 C 39.070312 56.980469 39.050781 56.871094 39.050781 56.753906 C 39.050781 56.117188 39.566406 55.605469 40.199219 55.605469 C 40.714844 55.605469 41.171875 55.949219 41.304688 56.449219 L 44.082031 66.628906 C 44.246094 67.242188 43.886719 67.871094 43.277344 68.039062 C 43.175781 68.066406 43.074219 68.082031 42.972656 68.082031 Z M 42.972656 68.082031 " fill-opacity="1" fill-rule="evenodd"/><g clip-path="url(#7d7a794a10)"><path fill="#212121" d="M 49.421875 73.511719 L 24.007812 73.511719 C 23.375 73.511719 22.859375 72.996094 22.859375 72.363281 L 22.859375 69.53125 C 22.859375 67.464844 24.539062 65.785156 26.605469 65.785156 L 46.828125 65.785156 C 48.890625 65.785156 50.570312 67.464844 50.570312 69.53125 L 50.570312 72.363281 C 50.570312 72.996094 50.058594 73.511719 49.421875 73.511719 Z M 25.15625 71.214844 L 48.273438 71.214844 L 48.273438 69.53125 C 48.273438 68.730469 47.625 68.082031 46.828125 68.082031 L 26.605469 68.082031 C 25.804688 68.082031 25.15625 68.730469 25.15625 69.53125 Z M 25.15625 71.214844 " fill-opacity="1" fill-rule="evenodd"/></g><g clip-path="url(#643a2ba364)"><path fill="#212121" d="M 68.933594 51.472656 L 4.496094 51.472656 C 3.863281 51.472656 3.347656 50.957031 3.347656 50.324219 C 3.347656 49.691406 3.863281 49.175781 4.496094 49.175781 L 68.933594 49.175781 C 69.566406 49.175781 70.082031 49.691406 70.082031 50.324219 C 70.082031 50.957031 69.566406 51.472656 68.933594 51.472656 Z M 68.933594 51.472656 " fill-opacity="1" fill-rule="evenodd"/></g><path fill="#212121" d="M 63.5 51.472656 C 62.867188 51.472656 62.351562 50.957031 62.351562 50.324219 L 62.351562 16.75 L 57.644531 16.75 C 57.011719 16.75 56.496094 16.234375 56.496094 15.601562 C 56.496094 14.964844 57.011719 14.453125 57.644531 14.453125 L 63.5 14.453125 C 64.132812 14.453125 64.648438 14.964844 64.648438 15.601562 L 64.648438 50.324219 C 64.648438 50.957031 64.132812 51.472656 63.5 51.472656 Z M 63.5 51.472656 " fill-opacity="1" fill-rule="evenodd"/><path fill="#212121" d="M 9.929688 51.472656 C 9.296875 51.472656 8.78125 50.957031 8.78125 50.324219 L 8.78125 15.601562 C 8.78125 14.964844 9.296875 14.453125 9.929688 14.453125 L 52.488281 14.453125 C 53.121094 14.453125 53.636719 14.964844 53.636719 15.601562 C 53.636719 16.234375 53.121094 16.75 52.488281 16.75 L 11.078125 16.75 L 11.078125 50.324219 C 11.078125 50.957031 10.5625 51.472656 9.929688 51.472656 Z M 9.929688 51.472656 " fill-opacity="1" fill-rule="evenodd"/><path fill="#212121" d="M 46.449219 27.136719 L 15.03125 27.136719 C 14.394531 27.136719 13.882812 26.621094 13.882812 25.988281 L 13.882812 20.597656 C 13.882812 19.960938 14.394531 19.449219 15.03125 19.449219 L 46.449219 19.449219 C 47.085938 19.449219 47.597656 19.960938 47.597656 20.597656 L 47.597656 25.988281 C 47.597656 26.621094 47.085938 27.136719 46.449219 27.136719 Z M 16.179688 24.839844 L 45.300781 24.839844 L 45.300781 21.746094 L 16.179688 21.746094 Z M 16.179688 24.839844 " fill-opacity="1" fill-rule="evenodd"/><path fill="#212121" d="M 46.449219 46.476562 L 34.921875 46.476562 C 34.289062 46.476562 33.777344 45.960938 33.777344 45.328125 L 33.777344 30.308594 C 33.777344 29.675781 34.289062 29.160156 34.921875 29.160156 L 46.449219 29.160156 C 47.085938 29.160156 47.597656 29.675781 47.597656 30.308594 L 47.597656 45.328125 C 47.597656 45.960938 47.085938 46.476562 46.449219 46.476562 Z M 36.070312 44.179688 L 45.304688 44.179688 L 45.304688 31.457031 L 36.070312 31.457031 Z M 36.070312 44.179688 " fill-opacity="1" fill-rule="evenodd"/><path fill="#212121" d="M 29.324219 35.863281 L 15.03125 35.863281 C 14.394531 35.863281 13.882812 35.347656 13.882812 34.714844 L 13.882812 30.308594 C 13.882812 29.675781 14.394531 29.160156 15.03125 29.160156 L 29.324219 29.160156 C 29.960938 29.160156 30.472656 29.675781 30.472656 30.308594 L 30.472656 34.714844 C 30.472656 35.347656 29.960938 35.863281 29.324219 35.863281 Z M 16.179688 33.566406 L 28.179688 33.566406 L 28.179688 31.457031 L 16.179688 31.457031 Z M 16.179688 33.566406 " fill-opacity="1" fill-rule="evenodd"/><path fill="#212121" d="M 29.324219 46.476562 L 15.03125 46.476562 C 14.394531 46.476562 13.882812 45.960938 13.882812 45.328125 L 13.882812 38.953125 C 13.882812 38.320312 14.394531 37.804688 15.03125 37.804688 L 29.324219 37.804688 C 29.960938 37.804688 30.472656 38.320312 30.472656 38.953125 L 30.472656 45.328125 C 30.472656 45.960938 29.960938 46.476562 29.324219 46.476562 Z M 16.179688 44.179688 L 28.179688 44.179688 L 28.179688 40.101562 L 16.179688 40.101562 Z M 16.179688 44.179688 " fill-opacity="1" fill-rule="evenodd"/></svg>