<svg xmlns="http://www.w3.org/2000/svg" xmlns:xlink="http://www.w3.org/1999/xlink" width="100" zoomAndPan="magnify" viewBox="0 0 75 74.999997" height="100" preserveAspectRatio="xMidYMid meet" version="1.0"><defs><clipPath id="1435537124"><path d="M 1.023438 1.648438 L 73.023438 1.648438 L 73.023438 73.648438 L 1.023438 73.648438 Z M 1.023438 1.648438 " clip-rule="nonzero"/></clipPath></defs><rect x="-7.5" width="90" fill="#ffffff" y="-7.5" height="89.999996" fill-opacity="1"/><rect x="-7.5" width="90" fill="#ffffff" y="-7.5" height="89.999996" fill-opacity="1"/><g clip-path="url(#1435537124)"><path fill="#000000" d="M 72.964844 40.226562 L 72.964844 14.449219 C 72.964844 13.648438 72.964844 12.847656 72.964844 12.101562 C 72.964844 12.042969 73.023438 11.929688 73.023438 11.871094 C 73.023438 11.816406 73.023438 11.699219 72.964844 11.644531 C 72.964844 9.753906 72.964844 7.863281 72.964844 5.972656 C 72.964844 3.625 71.132812 1.734375 68.785156 1.675781 C 68.785156 1.675781 68.726562 1.675781 68.726562 1.675781 L 5.605469 1.675781 C 5.375 1.675781 5.148438 1.675781 4.976562 1.675781 C 2.796875 1.792969 1.023438 3.625 1.023438 5.800781 C 1.023438 6.429688 1.023438 7.0625 1.023438 7.691406 L 1.023438 68.464844 C 1.023438 69.953125 1.136719 71.441406 2.339844 72.53125 C 3.542969 73.621094 4.804688 73.621094 6.234375 73.621094 L 68.785156 73.621094 C 71.019531 73.5625 72.851562 71.785156 72.910156 69.550781 C 72.910156 69.378906 72.910156 69.152344 72.910156 68.980469 L 72.910156 40.683594 C 72.910156 40.625 72.964844 40.511719 72.964844 40.453125 C 72.964844 40.398438 73.023438 40.28125 72.964844 40.226562 Z M 2.457031 12.558594 L 63.570312 12.558594 C 66.207031 12.558594 68.898438 12.675781 71.535156 12.558594 L 71.535156 39.710938 L 10.472656 39.710938 C 7.78125 39.710938 5.148438 39.59375 2.457031 39.710938 L 2.457031 13.476562 C 2.457031 13.191406 2.457031 12.847656 2.457031 12.558594 Z M 2.457031 5.859375 C 2.457031 4.367188 3.65625 3.109375 5.203125 3.109375 L 59.621094 3.109375 C 62.597656 3.109375 65.578125 3.109375 68.554688 3.109375 C 70.101562 2.996094 71.417969 4.195312 71.535156 5.742188 C 71.535156 5.800781 71.535156 5.914062 71.535156 5.972656 C 71.535156 6.890625 71.535156 7.804688 71.535156 8.722656 L 71.535156 11.070312 L 10.472656 11.070312 C 7.78125 11.070312 5.148438 10.957031 2.457031 11.070312 C 2.457031 9.351562 2.457031 7.632812 2.457031 5.859375 Z M 71.535156 69.496094 C 71.535156 70.984375 70.332031 72.246094 68.839844 72.246094 L 6.636719 72.246094 C 5.777344 72.246094 4.746094 72.359375 3.945312 71.957031 C 2.511719 71.214844 2.511719 69.839844 2.511719 68.464844 L 2.511719 41.199219 L 63.628906 41.199219 C 66.265625 41.199219 68.957031 41.3125 71.589844 41.199219 L 71.589844 68.808594 C 71.535156 69.039062 71.535156 69.265625 71.535156 69.496094 Z M 71.535156 69.496094 " fill-opacity="1" fill-rule="nonzero"/></g><path fill="#000000" d="M 24.394531 58.097656 L 24.394531 49.847656 C 24.394531 49.046875 24.394531 48.246094 24.394531 47.5 C 24.449219 46.125 23.363281 44.980469 21.988281 44.921875 C 19.984375 44.867188 17.976562 44.921875 15.972656 44.921875 C 13.796875 44.921875 11.5625 44.867188 9.386719 44.921875 C 8.011719 44.867188 6.867188 45.953125 6.808594 47.328125 C 6.808594 47.328125 6.808594 47.328125 6.808594 47.386719 C 6.808594 48.015625 6.808594 48.644531 6.808594 49.277344 L 6.808594 60.386719 C 6.808594 61.535156 7.152344 62.566406 8.242188 63.082031 C 8.925781 63.308594 9.671875 63.367188 10.417969 63.308594 L 21.929688 63.308594 C 21.988281 63.308594 22.042969 63.308594 22.101562 63.253906 C 23.417969 63.136719 24.449219 62.050781 24.394531 60.675781 C 24.394531 60.675781 24.394531 60.617188 24.394531 60.617188 C 24.394531 59.816406 24.394531 58.957031 24.394531 58.097656 Z M 22.960938 60.789062 C 22.960938 61.363281 22.503906 61.820312 21.929688 61.820312 L 9.902344 61.820312 C 9.15625 61.820312 8.296875 61.820312 8.183594 60.789062 C 8.125 60.332031 8.183594 59.816406 8.183594 59.355469 L 8.183594 48.644531 C 8.125 48.128906 8.125 47.558594 8.242188 47.042969 C 8.527344 46.238281 9.386719 46.410156 10.074219 46.410156 L 20.671875 46.410156 C 21.242188 46.355469 21.816406 46.355469 22.386719 46.527344 C 23.074219 46.871094 22.960938 47.671875 22.960938 48.300781 L 22.960938 55.40625 C 22.960938 57.125 23.019531 58.957031 22.960938 60.789062 Z M 22.960938 60.789062 " fill-opacity="1" fill-rule="nonzero"/><path fill="#000000" d="M 20.726562 64.683594 L 10.472656 64.683594 C 10.074219 64.683594 9.785156 65.027344 9.785156 65.371094 C 9.785156 65.714844 10.128906 66.058594 10.472656 66.058594 L 20.726562 66.058594 C 21.128906 66.058594 21.414062 65.714844 21.414062 65.371094 C 21.414062 65.027344 21.128906 64.683594 20.726562 64.683594 Z M 20.726562 64.683594 " fill-opacity="1" fill-rule="nonzero"/><path fill="#000000" d="M 20.726562 67.03125 L 10.472656 67.03125 C 10.074219 67.03125 9.785156 67.375 9.785156 67.71875 C 9.785156 68.121094 10.128906 68.40625 10.472656 68.40625 L 20.726562 68.40625 C 21.128906 68.40625 21.414062 68.0625 21.414062 67.71875 C 21.414062 67.375 21.128906 67.03125 20.726562 67.03125 Z M 20.726562 67.03125 " fill-opacity="1" fill-rule="nonzero"/><path fill="#000000" d="M 45.816406 58.097656 L 45.816406 49.847656 C 45.816406 49.046875 45.816406 48.246094 45.816406 47.5 C 45.871094 46.125 44.785156 44.980469 43.410156 44.921875 C 41.40625 44.867188 39.398438 44.921875 37.394531 44.921875 C 35.21875 44.921875 32.984375 44.867188 30.808594 44.921875 C 29.433594 44.867188 28.289062 46.011719 28.289062 47.386719 C 28.289062 48.015625 28.289062 48.644531 28.289062 49.277344 L 28.289062 60.386719 C 28.289062 61.535156 28.632812 62.566406 29.71875 63.082031 C 30.40625 63.308594 31.152344 63.367188 31.898438 63.308594 L 43.410156 63.308594 C 43.46875 63.308594 43.523438 63.308594 43.582031 63.253906 C 44.898438 63.136719 45.871094 61.992188 45.816406 60.675781 C 45.816406 60.675781 45.816406 60.675781 45.816406 60.617188 C 45.816406 59.816406 45.816406 58.957031 45.816406 58.097656 Z M 44.382812 60.789062 C 44.382812 61.363281 43.925781 61.820312 43.351562 61.820312 L 31.324219 61.820312 C 30.578125 61.820312 29.71875 61.820312 29.605469 60.789062 C 29.546875 60.332031 29.605469 59.816406 29.605469 59.355469 L 29.605469 48.644531 C 29.546875 48.128906 29.546875 47.558594 29.664062 47.042969 C 29.949219 46.238281 30.808594 46.410156 31.496094 46.410156 L 42.09375 46.410156 C 42.664062 46.355469 43.238281 46.355469 43.8125 46.527344 C 44.5 46.871094 44.382812 47.671875 44.382812 48.300781 L 44.382812 55.40625 C 44.382812 57.125 44.5 58.957031 44.382812 60.789062 Z M 44.382812 60.789062 " fill-opacity="1" fill-rule="nonzero"/><path fill="#000000" d="M 42.148438 64.683594 L 31.898438 64.683594 C 31.496094 64.683594 31.210938 65.027344 31.210938 65.371094 C 31.210938 65.714844 31.554688 66.058594 31.898438 66.058594 L 42.148438 66.058594 C 42.550781 66.058594 42.835938 65.714844 42.835938 65.371094 C 42.835938 65.027344 42.550781 64.683594 42.148438 64.683594 Z M 42.148438 64.683594 " fill-opacity="1" fill-rule="nonzero"/><path fill="#000000" d="M 42.148438 67.03125 L 31.898438 67.03125 C 31.496094 67.03125 31.210938 67.375 31.210938 67.71875 C 31.210938 68.121094 31.554688 68.40625 31.898438 68.40625 L 42.148438 68.40625 C 42.550781 68.40625 42.835938 68.0625 42.835938 67.71875 C 42.835938 67.375 42.550781 67.03125 42.148438 67.03125 Z M 42.148438 67.03125 " fill-opacity="1" fill-rule="nonzero"/><path fill="#000000" d="M 67.238281 58.097656 L 67.238281 49.847656 C 67.238281 49.046875 67.238281 48.246094 67.238281 47.5 C 67.296875 46.125 66.207031 44.980469 64.832031 44.921875 C 62.828125 44.867188 60.824219 44.921875 58.816406 44.921875 C 56.640625 44.921875 54.40625 44.867188 52.230469 44.921875 C 50.855469 44.921875 49.710938 46.011719 49.710938 47.386719 C 49.710938 48.015625 49.710938 48.644531 49.710938 49.277344 L 49.710938 60.386719 C 49.710938 61.535156 50.054688 62.566406 51.140625 63.082031 C 51.828125 63.308594 52.574219 63.367188 53.320312 63.308594 L 64.832031 63.308594 C 64.890625 63.308594 64.945312 63.308594 65.0625 63.253906 C 66.320312 63.082031 67.296875 61.992188 67.238281 60.675781 C 67.238281 60.675781 67.238281 60.675781 67.238281 60.617188 C 67.238281 59.816406 67.238281 58.957031 67.238281 58.097656 Z M 65.804688 60.789062 C 65.804688 61.363281 65.347656 61.820312 64.773438 61.820312 L 52.746094 61.820312 C 52 61.820312 51.140625 61.820312 51.027344 60.789062 C 50.96875 60.332031 51.027344 59.816406 51.027344 59.355469 L 51.027344 48.644531 C 50.96875 48.128906 50.96875 47.558594 51.085938 47.042969 C 51.371094 46.238281 52.230469 46.410156 52.917969 46.410156 L 63.457031 46.410156 C 64.03125 46.355469 64.601562 46.355469 65.175781 46.527344 C 65.863281 46.871094 65.75 47.671875 65.75 48.300781 L 65.75 55.40625 C 65.804688 57.125 65.921875 58.957031 65.804688 60.789062 Z M 65.804688 60.789062 " fill-opacity="1" fill-rule="nonzero"/><path fill="#000000" d="M 63.570312 64.683594 L 53.320312 64.683594 C 52.917969 64.683594 52.632812 65.027344 52.632812 65.371094 C 52.632812 65.714844 52.976562 66.058594 53.320312 66.058594 L 63.570312 66.058594 C 63.972656 66.058594 64.257812 65.714844 64.257812 65.371094 C 64.257812 65.027344 63.972656 64.683594 63.570312 64.683594 Z M 63.570312 64.683594 " fill-opacity="1" fill-rule="nonzero"/><path fill="#000000" d="M 63.570312 67.03125 L 53.320312 67.03125 C 52.917969 67.03125 52.632812 67.375 52.632812 67.71875 C 52.632812 68.121094 52.976562 68.40625 53.320312 68.40625 L 63.570312 68.40625 C 63.972656 68.40625 64.257812 68.0625 64.257812 67.71875 C 64.316406 67.375 63.972656 67.03125 63.570312 67.03125 Z M 63.570312 67.03125 " fill-opacity="1" fill-rule="nonzero"/><path fill="#000000" d="M 9.441406 7.347656 C 9.441406 7.347656 9.441406 7.289062 9.441406 7.347656 C 9.441406 7.289062 9.441406 7.289062 9.441406 7.289062 C 9.386719 7.289062 9.386719 7.347656 9.441406 7.347656 Z M 9.441406 7.347656 " fill-opacity="1" fill-rule="nonzero"/><path fill="#000000" d="M 10.300781 8.953125 C 10.644531 8.492188 10.875 7.976562 10.875 7.40625 C 10.875 7.289062 10.875 7.175781 10.816406 7.117188 C 10.703125 6.257812 10.074219 5.457031 9.214844 5.171875 C 8.296875 4.828125 7.265625 5.113281 6.636719 5.859375 C 5.777344 6.890625 5.890625 8.378906 6.921875 9.238281 C 7.898438 10.097656 9.441406 9.980469 10.300781 8.953125 Z M 7.4375 7.347656 C 7.4375 7.289062 7.4375 7.289062 7.4375 7.234375 C 7.4375 7.175781 7.496094 7.0625 7.496094 7.003906 L 7.554688 6.890625 L 7.609375 6.773438 C 7.667969 6.71875 7.726562 6.660156 7.78125 6.601562 C 7.78125 6.601562 7.839844 6.601562 7.839844 6.601562 C 7.898438 6.601562 8.070312 6.488281 8.070312 6.488281 C 8.070312 6.488281 7.898438 6.546875 8.011719 6.488281 L 8.125 6.429688 L 8.183594 6.429688 C 8.183594 6.429688 8.183594 6.429688 8.242188 6.429688 C 8.242188 6.429688 8.296875 6.429688 8.296875 6.429688 L 8.527344 6.429688 L 8.753906 6.488281 L 8.871094 6.546875 L 9.097656 6.773438 C 9.097656 6.832031 9.15625 6.832031 9.15625 6.890625 L 9.214844 7.003906 C 9.269531 7.117188 9.269531 7.175781 9.269531 7.234375 C 9.269531 7.234375 9.269531 7.289062 9.269531 7.289062 C 9.269531 7.347656 9.269531 7.347656 9.269531 7.347656 C 9.269531 7.40625 9.269531 7.40625 9.269531 7.460938 C 9.269531 7.519531 9.269531 7.519531 9.269531 7.578125 C 9.269531 7.632812 9.214844 7.691406 9.214844 7.75 C 9.214844 7.75 9.214844 7.804688 9.214844 7.804688 C 9.214844 7.804688 9.214844 7.804688 9.15625 7.863281 C 9.097656 7.976562 9.097656 8.035156 9.042969 8.09375 C 9.042969 8.09375 8.984375 8.148438 8.984375 8.148438 L 8.925781 8.207031 C 8.871094 8.207031 8.8125 8.320312 8.753906 8.320312 L 8.699219 8.378906 L 8.46875 8.4375 C 8.414062 8.4375 8.414062 8.4375 8.414062 8.4375 C 8.355469 8.4375 8.296875 8.4375 8.183594 8.4375 L 8.070312 8.4375 L 7.953125 8.378906 C 7.839844 8.320312 8.011719 8.378906 8.011719 8.378906 C 8.011719 8.378906 7.839844 8.320312 7.839844 8.265625 L 7.78125 8.207031 C 7.726562 8.148438 7.667969 8.09375 7.609375 8.035156 C 7.609375 8.035156 7.667969 8.148438 7.609375 8.09375 L 7.554688 7.976562 L 7.496094 7.863281 L 7.496094 7.804688 C 7.496094 7.75 7.496094 7.75 7.496094 7.804688 C 7.496094 7.75 7.4375 7.691406 7.4375 7.632812 C 7.4375 7.578125 7.4375 7.578125 7.4375 7.519531 C 7.4375 7.460938 7.4375 7.40625 7.4375 7.347656 Z M 7.4375 7.347656 " fill-opacity="1" fill-rule="nonzero"/><path fill="#000000" d="M 7.4375 7.347656 C 7.496094 7.175781 7.4375 7.234375 7.4375 7.347656 Z M 7.4375 7.347656 " fill-opacity="1" fill-rule="nonzero"/><path fill="#000000" d="M 16.085938 9.007812 C 16.488281 8.550781 16.660156 8.035156 16.660156 7.460938 C 16.660156 6.429688 16.03125 5.515625 15.054688 5.171875 C 14.140625 4.828125 13.050781 5.113281 12.421875 5.859375 C 11.5625 6.890625 11.675781 8.378906 12.652344 9.296875 C 13.683594 10.152344 15.226562 10.039062 16.085938 9.007812 Z M 13.222656 7.347656 C 13.222656 7.289062 13.222656 7.289062 13.222656 7.234375 C 13.222656 7.175781 13.28125 7.0625 13.28125 7.003906 L 13.339844 6.890625 L 13.394531 6.773438 C 13.394531 6.773438 13.511719 6.601562 13.566406 6.601562 C 13.566406 6.601562 13.566406 6.601562 13.625 6.601562 C 13.683594 6.546875 13.796875 6.546875 13.855469 6.488281 C 13.855469 6.488281 13.683594 6.546875 13.796875 6.488281 L 13.910156 6.429688 L 13.96875 6.429688 C 13.96875 6.429688 13.96875 6.429688 14.027344 6.429688 C 14.027344 6.429688 14.082031 6.429688 14.082031 6.429688 L 14.3125 6.429688 L 14.597656 6.488281 C 14.710938 6.546875 14.710938 6.546875 14.710938 6.546875 L 14.769531 6.601562 C 14.828125 6.660156 14.882812 6.71875 14.941406 6.773438 C 14.941406 6.832031 15 6.832031 15 6.890625 C 15 6.945312 15.054688 6.945312 15.054688 7.003906 C 15.226562 7.175781 15.226562 7.234375 15.226562 7.289062 C 15.226562 7.289062 15.226562 7.347656 15.226562 7.347656 C 15.226562 7.40625 15.226562 7.40625 15.226562 7.40625 C 15.226562 7.460938 15.226562 7.460938 15.226562 7.519531 C 15.226562 7.519531 15.226562 7.578125 15.226562 7.578125 C 15.226562 7.578125 15.171875 7.75 15.171875 7.804688 C 15.171875 7.804688 15.171875 7.863281 15.171875 7.863281 C 15.171875 7.863281 15.171875 7.863281 15.113281 7.921875 C 15.054688 7.976562 15 8.09375 15 8.148438 C 15 8.148438 14.941406 8.207031 14.941406 8.207031 C 14.941406 8.207031 14.882812 8.265625 14.882812 8.265625 C 14.828125 8.265625 14.769531 8.378906 14.714844 8.378906 L 14.65625 8.320312 L 14.425781 8.378906 C 14.3125 8.378906 14.425781 8.378906 14.425781 8.378906 C 14.425781 8.378906 14.3125 8.378906 14.3125 8.378906 C 14.253906 8.378906 14.199219 8.378906 14.082031 8.378906 C 14.082031 8.378906 14.082031 8.378906 14.027344 8.378906 L 13.910156 8.378906 L 13.796875 8.320312 C 13.683594 8.265625 13.855469 8.320312 13.855469 8.320312 C 13.796875 8.265625 13.738281 8.265625 13.683594 8.207031 L 13.566406 8.148438 C 13.511719 8.09375 13.453125 8.035156 13.394531 7.976562 C 13.394531 7.976562 13.394531 8.035156 13.394531 7.976562 L 13.339844 7.921875 C 13.339844 7.921875 13.28125 7.863281 13.28125 7.863281 L 13.28125 7.804688 C 13.28125 7.75 13.28125 7.75 13.28125 7.863281 C 13.28125 7.863281 13.222656 7.691406 13.222656 7.632812 L 13.222656 7.519531 C 13.222656 7.460938 13.222656 7.40625 13.222656 7.347656 Z M 13.222656 7.347656 " fill-opacity="1" fill-rule="nonzero"/><path fill="#000000" d="M 13.222656 7.347656 C 13.28125 7.175781 13.222656 7.289062 13.222656 7.347656 Z M 13.222656 7.347656 " fill-opacity="1" fill-rule="nonzero"/><path fill="#000000" d="M 20.554688 9.808594 C 21.699219 9.582031 22.445312 8.609375 22.503906 7.460938 C 22.503906 7.40625 22.503906 7.347656 22.445312 7.289062 C 22.386719 6.316406 21.757812 5.515625 20.839844 5.171875 C 19.582031 4.769531 18.207031 5.457031 17.75 6.71875 C 17.519531 7.40625 17.578125 8.09375 17.976562 8.722656 C 18.550781 9.582031 19.582031 10.039062 20.554688 9.808594 Z M 19.066406 7.347656 C 19.066406 7.289062 19.066406 7.289062 19.066406 7.234375 C 19.066406 7.175781 19.125 7.0625 19.125 7.003906 L 19.179688 6.890625 L 19.238281 6.773438 C 19.238281 6.773438 19.351562 6.601562 19.410156 6.601562 C 19.410156 6.601562 19.46875 6.546875 19.46875 6.546875 C 19.523438 6.488281 19.640625 6.488281 19.695312 6.429688 C 19.695312 6.429688 19.523438 6.488281 19.640625 6.429688 L 19.753906 6.375 L 19.8125 6.375 C 19.8125 6.375 19.8125 6.375 19.867188 6.375 C 19.867188 6.375 19.925781 6.375 19.925781 6.375 L 20.15625 6.375 L 20.441406 6.429688 C 20.554688 6.488281 20.554688 6.488281 20.554688 6.488281 C 20.554688 6.488281 20.613281 6.488281 20.613281 6.546875 L 20.671875 6.546875 L 20.839844 6.71875 C 20.839844 6.773438 20.898438 6.773438 20.898438 6.832031 L 20.957031 6.945312 C 21.011719 7.0625 21.011719 7.117188 21.011719 7.175781 C 21.070312 7.117188 21.011719 7.347656 21.011719 7.347656 C 21.011719 7.347656 21.011719 7.40625 21.011719 7.40625 C 21.011719 7.460938 20.957031 7.519531 20.957031 7.578125 C 20.957031 7.578125 20.957031 7.632812 20.957031 7.632812 C 20.957031 7.632812 20.957031 7.632812 20.898438 7.691406 L 20.785156 7.921875 C 20.785156 7.921875 20.726562 7.976562 20.726562 7.976562 L 20.671875 8.035156 C 20.613281 8.09375 20.554688 8.148438 20.5 8.148438 L 20.441406 8.207031 L 20.210938 8.265625 C 20.15625 8.265625 20.15625 8.265625 20.097656 8.265625 C 20.039062 8.265625 19.925781 8.265625 19.867188 8.265625 L 19.8125 8.265625 L 19.695312 8.207031 C 19.582031 8.148438 19.753906 8.207031 19.753906 8.207031 C 19.753906 8.207031 19.582031 8.148438 19.582031 8.09375 C 19.523438 8.09375 19.523438 8.035156 19.46875 8.035156 C 19.410156 7.976562 19.351562 7.921875 19.296875 7.863281 C 19.296875 7.863281 19.296875 7.921875 19.296875 7.863281 L 19.238281 7.75 C 19.238281 7.75 19.238281 7.691406 19.179688 7.691406 L 19.179688 7.632812 C 19.179688 7.578125 19.179688 7.578125 19.179688 7.632812 C 19.179688 7.578125 19.125 7.519531 19.125 7.460938 L 19.125 7.347656 C 19.066406 7.460938 19.066406 7.40625 19.066406 7.347656 Z M 19.066406 7.347656 " fill-opacity="1" fill-rule="nonzero"/><path fill="#000000" d="M 21.070312 7.289062 C 21.011719 7.347656 21.070312 7.40625 21.070312 7.289062 Z M 21.070312 7.289062 " fill-opacity="1" fill-rule="nonzero"/><path fill="#000000" d="M 19.066406 7.347656 C 19.125 7.175781 19.066406 7.289062 19.066406 7.347656 Z M 19.066406 7.347656 " fill-opacity="1" fill-rule="nonzero"/><path fill="#000000" d="M 34.300781 9.808594 L 50.113281 9.808594 C 55.210938 9.808594 60.25 9.925781 65.347656 9.808594 L 65.632812 9.808594 C 66.835938 9.808594 67.867188 8.894531 68.039062 7.691406 C 68.15625 6.601562 67.523438 5.515625 66.492188 5.113281 C 65.921875 4.941406 65.40625 4.882812 64.832031 4.941406 L 38.710938 4.941406 C 37.109375 4.941406 35.503906 4.882812 33.957031 4.941406 C 32.585938 4.941406 31.496094 6.03125 31.496094 7.347656 C 31.496094 7.75 31.609375 8.148438 31.78125 8.550781 C 32.355469 9.582031 33.269531 9.808594 34.300781 9.808594 Z M 34.417969 6.429688 L 62.082031 6.429688 C 63.226562 6.429688 64.375 6.316406 65.519531 6.429688 C 66.09375 6.488281 66.492188 6.945312 66.4375 7.519531 C 66.378906 8.035156 66.035156 8.378906 65.519531 8.4375 L 34.417969 8.4375 C 33.730469 8.4375 32.871094 8.378906 32.871094 7.460938 C 32.871094 6.546875 33.785156 6.429688 34.417969 6.429688 Z M 34.417969 6.429688 " fill-opacity="1" fill-rule="nonzero"/><path fill="#000000" d="M 16.085938 34.210938 L 25.652344 27.679688 L 35.160156 34.210938 C 35.90625 34.726562 36.652344 33.523438 35.90625 32.953125 L 29.835938 28.828125 L 38.769531 22.753906 L 48.335938 29.285156 C 49.082031 29.800781 49.824219 28.597656 49.082031 28.023438 L 39.113281 21.265625 C 38.882812 21.152344 38.597656 21.152344 38.371094 21.265625 L 28.574219 27.96875 L 25.996094 26.191406 C 25.769531 26.078125 25.480469 26.078125 25.253906 26.191406 L 15.34375 33.007812 C 14.597656 33.523438 15.34375 34.785156 16.085938 34.210938 Z M 16.085938 34.210938 " fill-opacity="1" fill-rule="nonzero"/><path fill="#000000" d="M 55.667969 22.46875 C 56.070312 21.953125 56.296875 21.324219 56.296875 20.695312 C 56.296875 19.546875 55.554688 18.515625 54.464844 18.117188 C 53.433594 17.714844 52.230469 18.058594 51.484375 18.917969 C 50.511719 20.0625 50.628906 21.78125 51.773438 22.753906 C 52.917969 23.730469 54.695312 23.613281 55.667969 22.46875 Z M 52.34375 20.523438 L 52.34375 20.464844 C 52.34375 20.40625 52.34375 20.40625 52.34375 20.40625 C 52.34375 20.40625 52.34375 20.351562 52.34375 20.351562 C 52.402344 20.292969 52.402344 20.234375 52.460938 20.179688 C 52.460938 20.179688 52.460938 20.179688 52.460938 20.121094 C 52.460938 20.0625 52.515625 20.007812 52.515625 20.007812 C 52.515625 20.007812 52.6875 19.777344 52.574219 19.890625 C 52.632812 19.835938 52.6875 19.777344 52.746094 19.71875 C 52.746094 19.71875 52.804688 19.664062 52.804688 19.664062 C 52.804688 19.605469 52.976562 19.492188 53.089844 19.492188 L 53.261719 19.433594 L 53.375 19.433594 C 53.375 19.433594 53.546875 19.375 53.433594 19.433594 C 53.320312 19.492188 53.492188 19.433594 53.492188 19.433594 L 53.777344 19.433594 L 54.0625 19.546875 C 54.121094 19.605469 54.179688 19.605469 54.234375 19.605469 L 54.351562 19.664062 L 54.578125 19.890625 C 54.578125 19.949219 54.636719 20.007812 54.695312 20.007812 L 54.75 20.121094 C 54.808594 20.234375 54.808594 20.351562 54.867188 20.40625 C 54.867188 20.464844 54.867188 20.578125 54.867188 20.636719 C 54.867188 20.695312 54.867188 20.695312 54.867188 20.695312 C 54.867188 20.808594 54.867188 20.867188 54.808594 20.980469 C 54.808594 21.039062 54.808594 21.09375 54.75 21.152344 C 54.75 21.152344 54.808594 21.039062 54.75 21.152344 C 54.695312 21.265625 54.636719 21.324219 54.578125 21.4375 L 54.523438 21.550781 C 54.523438 21.550781 54.40625 21.667969 54.40625 21.667969 C 54.351562 21.722656 54.292969 21.722656 54.234375 21.78125 L 54.179688 21.839844 C 54.179688 21.839844 54.179688 21.839844 54.121094 21.839844 C 53.949219 21.894531 53.949219 21.894531 53.835938 21.894531 C 53.777344 21.894531 53.71875 21.894531 53.71875 21.894531 L 53.433594 21.894531 L 53.261719 21.839844 L 53.089844 21.78125 C 53.03125 21.78125 52.917969 21.722656 52.859375 21.667969 L 52.746094 21.609375 L 52.574219 21.4375 C 52.574219 21.4375 52.515625 21.4375 52.515625 21.378906 L 52.460938 21.324219 C 52.460938 21.324219 52.402344 21.265625 52.402344 21.210938 C 52.34375 21.152344 52.34375 21.039062 52.34375 20.980469 C 52.34375 20.921875 52.34375 20.921875 52.34375 20.867188 C 52.34375 20.867188 52.34375 20.867188 52.34375 20.808594 C 52.34375 20.695312 52.34375 20.636719 52.34375 20.523438 Z M 52.34375 20.523438 " fill-opacity="1" fill-rule="nonzero"/><path fill="#000000" d="M 52.574219 21.4375 C 52.632812 21.496094 52.632812 21.496094 52.574219 21.4375 Z M 52.574219 21.4375 " fill-opacity="1" fill-rule="nonzero"/><path fill="#000000" d="M 53.148438 19.492188 C 53.148438 19.492188 53.03125 19.546875 53.148438 19.492188 Z M 53.148438 19.492188 " fill-opacity="1" fill-rule="nonzero"/></svg>