<svg xmlns="http://www.w3.org/2000/svg" xmlns:xlink="http://www.w3.org/1999/xlink" width="100" zoomAndPan="magnify" viewBox="0 0 75 74.999997" height="100" preserveAspectRatio="xMidYMid meet" version="1.0"><defs><clipPath id="c80621d6ba"><path d="M 15 59 L 60 59 L 60 69.945312 L 15 69.945312 Z M 15 59 " clip-rule="nonzero"/></clipPath><clipPath id="8485391a3b"><path d="M 0.875 18 L 74.375 18 L 74.375 61 L 0.875 61 Z M 0.875 18 " clip-rule="nonzero"/></clipPath><clipPath id="f1d85bb8d7"><path d="M 19 1.695312 L 56 1.695312 L 56 38 L 19 38 Z M 19 1.695312 " clip-rule="nonzero"/></clipPath></defs><rect x="-7.5" width="90" fill="#ffffff" y="-7.5" height="89.999996" fill-opacity="1"/><rect x="-7.5" width="90" fill="#ffffff" y="-7.5" height="89.999996" fill-opacity="1"/><g clip-path="url(#c80621d6ba)"><path fill="#000000" d="M 58.21875 67.511719 L 46.746094 67.511719 L 46.746094 59.695312 L 28.503906 59.695312 L 28.503906 67.511719 L 17.035156 67.511719 C 16.363281 67.511719 15.816406 68.054688 15.816406 68.730469 C 15.816406 69.402344 16.363281 69.949219 17.035156 69.949219 L 58.21875 69.949219 C 58.890625 69.949219 59.4375 69.402344 59.4375 68.730469 C 59.4375 68.054688 58.890625 67.511719 58.21875 67.511719 Z M 58.21875 67.511719 " fill-opacity="1" fill-rule="nonzero"/></g><g clip-path="url(#8485391a3b)"><path fill="#000000" d="M 66.863281 18.839844 L 58.582031 18.839844 L 58.582031 21.277344 L 66.863281 21.277344 C 69.65625 21.277344 71.925781 23.546875 71.925781 26.339844 L 71.925781 53.410156 C 71.925781 56.203125 69.65625 58.476562 66.863281 58.476562 L 8.390625 58.476562 C 5.597656 58.476562 3.328125 56.203125 3.328125 53.410156 L 3.328125 26.339844 C 3.328125 23.546875 5.597656 21.277344 8.390625 21.277344 L 16.671875 21.277344 L 16.671875 18.839844 L 8.390625 18.839844 C 4.253906 18.839844 0.890625 22.203125 0.890625 26.339844 L 0.890625 53.410156 C 0.890625 57.546875 4.253906 60.910156 8.390625 60.910156 L 66.863281 60.910156 C 70.996094 60.910156 74.363281 57.546875 74.363281 53.410156 L 74.363281 26.339844 C 74.363281 22.203125 70.996094 18.839844 66.863281 18.839844 Z M 66.863281 18.839844 " fill-opacity="1" fill-rule="nonzero"/></g><g clip-path="url(#f1d85bb8d7)"><path fill="#000000" d="M 54.152344 16.027344 L 51.828125 16.027344 C 51.828125 16.011719 51.820312 15.996094 51.816406 15.980469 C 51.8125 15.96875 51.808594 15.957031 51.804688 15.941406 C 51.777344 15.835938 51.746094 15.726562 51.714844 15.617188 C 51.6875 15.539062 51.664062 15.453125 51.636719 15.367188 C 51.613281 15.296875 51.589844 15.222656 51.570312 15.152344 C 51.554688 15.117188 51.542969 15.078125 51.53125 15.042969 C 51.496094 14.945312 51.464844 14.847656 51.425781 14.753906 C 51.382812 14.640625 51.34375 14.527344 51.296875 14.417969 C 51.253906 14.304688 51.210938 14.195312 51.164062 14.085938 C 51.117188 13.972656 51.070312 13.867188 51.019531 13.757812 C 50.976562 13.664062 50.9375 13.574219 50.894531 13.484375 C 50.835938 13.359375 50.777344 13.238281 50.710938 13.117188 C 50.660156 13.015625 50.609375 12.917969 50.558594 12.820312 C 50.550781 12.808594 50.542969 12.792969 50.53125 12.773438 C 50.480469 12.6875 50.433594 12.59375 50.382812 12.503906 C 50.367188 12.480469 50.355469 12.457031 50.339844 12.429688 L 51.980469 10.789062 C 52.601562 10.167969 52.601562 9.160156 51.980469 8.542969 L 48.886719 5.449219 C 48.867188 5.429688 48.84375 5.40625 48.820312 5.390625 C 48.199219 4.828125 47.238281 4.851562 46.640625 5.449219 L 45 7.089844 C 44.976562 7.074219 44.949219 7.0625 44.925781 7.046875 C 44.835938 6.996094 44.746094 6.949219 44.65625 6.898438 C 44.636719 6.886719 44.625 6.878906 44.609375 6.871094 C 44.511719 6.820312 44.414062 6.769531 44.3125 6.71875 C 44.191406 6.652344 44.070312 6.59375 43.945312 6.539062 C 43.859375 6.496094 43.765625 6.449219 43.671875 6.410156 C 43.5625 6.363281 43.457031 6.3125 43.34375 6.265625 C 43.234375 6.222656 43.125 6.175781 43.011719 6.132812 C 42.902344 6.085938 42.792969 6.042969 42.679688 6.003906 C 42.582031 5.96875 42.484375 5.933594 42.386719 5.898438 C 42.351562 5.890625 42.3125 5.875 42.277344 5.859375 C 42.207031 5.839844 42.132812 5.816406 42.0625 5.792969 C 41.976562 5.765625 41.890625 5.742188 41.8125 5.71875 C 41.703125 5.683594 41.59375 5.652344 41.488281 5.625 C 41.476562 5.621094 41.464844 5.621094 41.457031 5.617188 C 41.453125 5.613281 41.453125 5.613281 41.449219 5.613281 C 41.433594 5.609375 41.421875 5.605469 41.402344 5.601562 L 41.402344 3.28125 C 41.402344 2.902344 41.269531 2.550781 41.046875 2.28125 C 40.757812 1.921875 40.3125 1.691406 39.816406 1.691406 L 35.441406 1.691406 C 34.945312 1.691406 34.5 1.921875 34.210938 2.28125 C 33.988281 2.550781 33.855469 2.902344 33.855469 3.28125 L 33.855469 5.601562 C 33.835938 5.605469 33.824219 5.609375 33.808594 5.617188 C 33.796875 5.621094 33.78125 5.621094 33.769531 5.628906 C 33.660156 5.65625 33.554688 5.6875 33.445312 5.71875 C 33.363281 5.742188 33.28125 5.769531 33.195312 5.796875 C 33.121094 5.816406 33.050781 5.839844 32.980469 5.863281 C 32.945312 5.875 32.90625 5.890625 32.871094 5.902344 C 32.773438 5.9375 32.671875 5.96875 32.578125 6.007812 C 32.464844 6.046875 32.355469 6.085938 32.242188 6.132812 C 32.128906 6.175781 32.019531 6.222656 31.910156 6.269531 C 31.800781 6.3125 31.691406 6.363281 31.582031 6.414062 C 31.492188 6.453125 31.398438 6.496094 31.308594 6.539062 C 31.1875 6.597656 31.0625 6.65625 30.941406 6.71875 C 30.84375 6.773438 30.746094 6.820312 30.648438 6.875 C 30.632812 6.878906 30.617188 6.886719 30.601562 6.898438 C 30.511719 6.949219 30.421875 7 30.328125 7.050781 C 30.304688 7.0625 30.28125 7.078125 30.257812 7.09375 L 28.609375 5.449219 C 28.011719 4.851562 27.054688 4.832031 26.433594 5.390625 C 26.410156 5.410156 26.386719 5.429688 26.367188 5.449219 L 23.273438 8.542969 C 22.652344 9.164062 22.652344 10.171875 23.273438 10.789062 L 24.914062 12.433594 C 24.898438 12.457031 24.886719 12.480469 24.871094 12.503906 C 24.820312 12.59375 24.773438 12.6875 24.71875 12.777344 C 24.710938 12.792969 24.703125 12.808594 24.695312 12.824219 C 24.644531 12.921875 24.59375 13.015625 24.542969 13.117188 C 24.476562 13.238281 24.417969 13.359375 24.359375 13.484375 C 24.316406 13.574219 24.273438 13.664062 24.234375 13.757812 C 24.183594 13.867188 24.136719 13.976562 24.089844 14.085938 C 24.042969 14.195312 23.996094 14.304688 23.953125 14.417969 C 23.910156 14.527344 23.867188 14.640625 23.828125 14.753906 C 23.789062 14.847656 23.757812 14.949219 23.722656 15.046875 C 23.710938 15.082031 23.699219 15.121094 23.683594 15.15625 C 23.664062 15.226562 23.636719 15.296875 23.617188 15.371094 C 23.589844 15.453125 23.566406 15.539062 23.539062 15.621094 C 23.507812 15.726562 23.476562 15.835938 23.449219 15.945312 C 23.441406 15.957031 23.441406 15.972656 23.4375 15.984375 C 23.429688 16 23.425781 16.011719 23.421875 16.027344 L 21.101562 16.027344 C 20.226562 16.027344 19.511719 16.738281 19.511719 17.617188 L 19.511719 21.988281 C 19.511719 22.867188 20.226562 23.578125 21.101562 23.578125 L 23.421875 23.578125 C 23.425781 23.59375 23.429688 23.605469 23.4375 23.625 C 23.441406 23.632812 23.445312 23.648438 23.449219 23.660156 C 23.476562 23.769531 23.507812 23.878906 23.539062 23.984375 C 23.566406 24.066406 23.589844 24.152344 23.617188 24.234375 C 23.636719 24.308594 23.664062 24.378906 23.683594 24.449219 C 23.699219 24.484375 23.710938 24.523438 23.722656 24.558594 C 23.757812 24.65625 23.789062 24.757812 23.828125 24.851562 C 23.871094 24.964844 23.910156 25.078125 23.953125 25.1875 C 23.996094 25.300781 24.042969 25.410156 24.089844 25.519531 C 24.136719 25.628906 24.183594 25.738281 24.234375 25.847656 C 24.273438 25.9375 24.316406 26.03125 24.359375 26.121094 C 24.417969 26.246094 24.476562 26.367188 24.542969 26.488281 C 24.59375 26.585938 24.644531 26.683594 24.695312 26.78125 C 24.703125 26.796875 24.710938 26.8125 24.71875 26.828125 C 24.773438 26.917969 24.820312 27.007812 24.871094 27.101562 C 24.886719 27.125 24.898438 27.148438 24.914062 27.171875 L 23.273438 28.816406 C 22.652344 29.433594 22.652344 30.441406 23.273438 31.0625 L 26.367188 34.15625 C 26.984375 34.773438 27.992188 34.773438 28.613281 34.15625 L 30.253906 32.511719 C 30.28125 32.527344 30.304688 32.542969 30.328125 32.554688 C 30.417969 32.605469 30.507812 32.65625 30.597656 32.707031 C 30.617188 32.71875 30.632812 32.726562 30.644531 32.730469 C 30.742188 32.785156 30.839844 32.832031 30.941406 32.886719 C 31.0625 32.949219 31.183594 33.007812 31.308594 33.066406 C 31.398438 33.109375 31.488281 33.152344 31.582031 33.195312 C 31.691406 33.242188 31.796875 33.292969 31.910156 33.335938 C 32.019531 33.382812 32.128906 33.429688 32.242188 33.472656 C 32.355469 33.519531 32.464844 33.558594 32.578125 33.597656 C 32.671875 33.636719 32.769531 33.667969 32.871094 33.703125 C 32.90625 33.714844 32.941406 33.730469 32.976562 33.742188 C 33.046875 33.765625 33.121094 33.789062 33.195312 33.808594 C 33.277344 33.835938 33.363281 33.863281 33.445312 33.886719 C 33.550781 33.917969 33.660156 33.949219 33.769531 33.976562 C 33.78125 33.984375 33.796875 33.984375 33.804688 33.988281 C 33.824219 33.996094 33.835938 34 33.851562 34.003906 L 33.851562 36.324219 C 33.851562 37.199219 34.5625 37.914062 35.441406 37.914062 L 39.8125 37.914062 C 40.691406 37.914062 41.402344 37.199219 41.402344 36.324219 L 41.402344 34.003906 C 41.417969 34 41.433594 33.996094 41.449219 33.988281 C 41.460938 33.984375 41.472656 33.984375 41.488281 33.976562 C 41.59375 33.949219 41.703125 33.917969 41.8125 33.886719 C 41.890625 33.863281 41.976562 33.835938 42.0625 33.808594 C 42.132812 33.789062 42.207031 33.765625 42.277344 33.742188 C 42.3125 33.730469 42.351562 33.714844 42.386719 33.703125 C 42.484375 33.667969 42.582031 33.636719 42.679688 33.597656 C 42.792969 33.558594 42.902344 33.519531 43.011719 33.472656 C 43.125 33.429688 43.234375 33.382812 43.34375 33.335938 C 43.457031 33.292969 43.5625 33.242188 43.671875 33.195312 C 43.765625 33.152344 43.855469 33.109375 43.945312 33.066406 C 44.070312 33.007812 44.191406 32.949219 44.3125 32.886719 C 44.414062 32.832031 44.511719 32.785156 44.609375 32.730469 C 44.625 32.726562 44.636719 32.71875 44.65625 32.707031 C 44.742188 32.65625 44.835938 32.605469 44.925781 32.554688 C 44.949219 32.542969 44.976562 32.527344 45 32.511719 L 46.640625 34.15625 C 47.261719 34.773438 48.269531 34.773438 48.890625 34.15625 L 51.984375 31.0625 C 52.601562 30.441406 52.601562 29.433594 51.984375 28.816406 L 50.339844 27.171875 C 50.355469 27.148438 50.371094 27.125 50.382812 27.101562 C 50.433594 27.011719 50.484375 26.917969 50.535156 26.828125 C 50.546875 26.8125 50.554688 26.796875 50.558594 26.78125 C 50.609375 26.683594 50.660156 26.589844 50.714844 26.488281 C 50.777344 26.367188 50.835938 26.246094 50.894531 26.121094 C 50.9375 26.03125 50.980469 25.941406 51.019531 25.847656 C 51.070312 25.738281 51.121094 25.628906 51.164062 25.519531 C 51.210938 25.410156 51.257812 25.300781 51.300781 25.1875 C 51.347656 25.078125 51.386719 24.964844 51.425781 24.851562 C 51.464844 24.757812 51.496094 24.65625 51.53125 24.558594 C 51.542969 24.523438 51.558594 24.484375 51.570312 24.449219 C 51.59375 24.378906 51.617188 24.308594 51.636719 24.234375 C 51.664062 24.152344 51.691406 24.066406 51.714844 23.984375 C 51.746094 23.878906 51.777344 23.769531 51.804688 23.660156 C 51.8125 23.648438 51.8125 23.632812 51.816406 23.625 C 51.824219 23.605469 51.828125 23.59375 51.832031 23.578125 L 54.152344 23.578125 C 55.03125 23.578125 55.742188 22.867188 55.742188 21.988281 L 55.742188 17.617188 C 55.742188 16.738281 55.027344 16.027344 54.152344 16.027344 Z M 45.429688 27.371094 C 45.367188 27.433594 45.304688 27.5 45.238281 27.5625 C 45.09375 27.703125 44.949219 27.839844 44.800781 27.964844 C 44.742188 28.019531 44.683594 28.070312 44.625 28.117188 C 43.898438 28.730469 43.101562 29.242188 42.25 29.640625 C 42.183594 29.671875 42.113281 29.703125 42.042969 29.730469 C 41.917969 29.792969 41.785156 29.84375 41.660156 29.894531 C 41.578125 29.929688 41.496094 29.957031 41.410156 29.992188 C 41.285156 30.039062 41.160156 30.082031 41.035156 30.121094 C 40.945312 30.152344 40.863281 30.179688 40.777344 30.203125 C 40.691406 30.230469 40.609375 30.253906 40.527344 30.277344 C 40.484375 30.289062 40.441406 30.300781 40.398438 30.3125 C 40.359375 30.324219 40.320312 30.332031 40.285156 30.339844 C 41.382812 29.261719 42.273438 27.53125 42.839844 25.382812 C 44.035156 25.601562 45.214844 25.894531 46.367188 26.261719 C 46.359375 26.277344 46.347656 26.289062 46.339844 26.300781 C 46.332031 26.316406 46.320312 26.328125 46.308594 26.34375 C 46.242188 26.433594 46.171875 26.523438 46.101562 26.609375 C 45.957031 26.792969 45.804688 26.96875 45.648438 27.140625 C 45.574219 27.21875 45.5 27.292969 45.429688 27.371094 Z M 37.625 30.671875 C 37.582031 30.671875 37.542969 30.671875 37.5 30.667969 C 37.476562 30.664062 37.457031 30.664062 37.433594 30.664062 C 36.542969 30.585938 35.707031 29.976562 34.984375 28.980469 C 34.304688 28.035156 33.726562 26.746094 33.316406 25.234375 C 35.164062 24.957031 37.054688 24.859375 38.933594 24.945312 C 39.75 24.980469 40.5625 25.050781 41.371094 25.15625 C 41.558594 25.179688 41.75 25.207031 41.9375 25.234375 C 41.078125 28.378906 39.515625 30.5625 37.753906 30.667969 C 37.710938 30.671875 37.667969 30.671875 37.625 30.671875 Z M 30.0625 27.609375 C 29.980469 27.53125 29.902344 27.449219 29.824219 27.371094 C 29.746094 27.289062 29.664062 27.207031 29.59375 27.121094 C 29.527344 27.050781 29.464844 26.980469 29.402344 26.910156 C 29.316406 26.8125 29.234375 26.710938 29.152344 26.609375 C 29.082031 26.519531 29.011719 26.433594 28.941406 26.339844 C 28.925781 26.3125 28.90625 26.289062 28.886719 26.261719 C 30.039062 25.894531 31.21875 25.601562 32.414062 25.382812 C 32.792969 26.828125 33.324219 28.085938 33.964844 29.085938 C 34.273438 29.566406 34.609375 29.988281 34.96875 30.339844 C 34.929688 30.332031 34.890625 30.324219 34.855469 30.3125 C 34.8125 30.300781 34.769531 30.289062 34.726562 30.277344 C 34.644531 30.253906 34.558594 30.230469 34.476562 30.203125 C 34.390625 30.179688 34.308594 30.152344 34.21875 30.121094 C 34.09375 30.082031 33.96875 30.039062 33.84375 29.992188 C 33.757812 29.960938 33.675781 29.929688 33.59375 29.894531 C 33.464844 29.84375 33.335938 29.792969 33.210938 29.730469 C 33.140625 29.703125 33.070312 29.671875 33.003906 29.640625 C 32.652344 29.476562 32.304688 29.289062 31.972656 29.082031 C 31.46875 28.777344 30.988281 28.429688 30.539062 28.039062 C 30.460938 27.972656 30.382812 27.90625 30.308594 27.835938 C 30.222656 27.765625 30.144531 27.6875 30.0625 27.609375 Z M 27.230469 22.980469 C 26.957031 22.097656 26.800781 21.179688 26.765625 20.25 L 31.734375 20.25 C 31.761719 21.769531 31.929688 23.207031 32.207031 24.519531 C 30.90625 24.757812 29.617188 25.085938 28.367188 25.496094 C 27.878906 24.703125 27.496094 23.855469 27.230469 22.980469 Z M 29.59375 12.480469 C 29.671875 12.394531 29.746094 12.3125 29.824219 12.234375 C 29.902344 12.152344 29.980469 12.074219 30.0625 11.996094 C 30.144531 11.917969 30.222656 11.835938 30.304688 11.765625 C 30.382812 11.695312 30.460938 11.628906 30.539062 11.558594 C 31.289062 10.914062 32.117188 10.378906 33.003906 9.960938 C 33.070312 9.929688 33.140625 9.898438 33.210938 9.867188 C 33.335938 9.808594 33.464844 9.753906 33.59375 9.707031 C 33.675781 9.671875 33.757812 9.640625 33.84375 9.609375 C 33.96875 9.5625 34.09375 9.519531 34.21875 9.480469 C 34.308594 9.449219 34.390625 9.421875 34.476562 9.398438 C 34.5625 9.371094 34.644531 9.34375 34.726562 9.324219 C 34.769531 9.308594 34.8125 9.300781 34.855469 9.289062 C 34.894531 9.277344 34.929688 9.269531 34.96875 9.261719 C 33.871094 10.339844 32.980469 12.070312 32.414062 14.21875 C 31.21875 14 30.039062 13.707031 28.886719 13.339844 C 28.90625 13.3125 28.925781 13.285156 28.941406 13.261719 C 29.011719 13.167969 29.082031 13.078125 29.152344 12.992188 C 29.234375 12.890625 29.316406 12.789062 29.402344 12.691406 C 29.464844 12.621094 29.53125 12.550781 29.59375 12.480469 Z M 40.398438 9.289062 C 40.441406 9.300781 40.484375 9.3125 40.527344 9.324219 C 40.609375 9.347656 40.695312 9.371094 40.777344 9.398438 C 40.863281 9.421875 40.945312 9.453125 41.035156 9.480469 C 41.175781 9.527344 41.316406 9.574219 41.457031 9.628906 C 41.523438 9.652344 41.589844 9.679688 41.660156 9.707031 C 41.785156 9.753906 41.917969 9.808594 42.042969 9.867188 C 42.113281 9.898438 42.183594 9.929688 42.25 9.960938 C 43.101562 10.363281 43.902344 10.871094 44.625 11.484375 C 44.683594 11.53125 44.742188 11.582031 44.800781 11.636719 C 44.949219 11.761719 45.09375 11.898438 45.238281 12.039062 C 45.300781 12.101562 45.367188 12.167969 45.429688 12.230469 C 45.503906 12.308594 45.574219 12.382812 45.644531 12.460938 C 45.804688 12.632812 45.953125 12.808594 46.101562 12.992188 C 46.171875 13.078125 46.242188 13.167969 46.308594 13.261719 C 46.320312 13.273438 46.328125 13.289062 46.335938 13.300781 C 46.34375 13.3125 46.355469 13.324219 46.363281 13.339844 C 45.214844 13.707031 44.03125 14 42.839844 14.21875 C 42.488281 12.902344 42.019531 11.738281 41.453125 10.789062 C 41.101562 10.191406 40.707031 9.675781 40.28125 9.261719 C 40.320312 9.269531 40.359375 9.28125 40.398438 9.289062 Z M 32.625 19.355469 C 32.652344 17.898438 32.820312 16.503906 33.101562 15.238281 C 34.589844 15.464844 36.109375 15.582031 37.625 15.582031 C 38.089844 15.582031 38.550781 15.570312 39.019531 15.546875 C 39.832031 15.511719 40.648438 15.441406 41.453125 15.335938 C 41.6875 15.304688 41.921875 15.273438 42.148438 15.238281 C 42.429688 16.503906 42.601562 17.898438 42.625 19.355469 Z M 42.628906 20.25 C 42.601562 21.703125 42.429688 23.097656 42.152344 24.367188 C 41.921875 24.332031 41.683594 24.300781 41.449219 24.269531 C 40.648438 24.164062 39.835938 24.09375 39.019531 24.058594 C 37.039062 23.964844 35.046875 24.070312 33.101562 24.367188 C 32.824219 23.097656 32.652344 21.703125 32.625 20.25 Z M 41.457031 12.898438 C 41.636719 13.359375 41.796875 13.847656 41.9375 14.371094 C 41.777344 14.398438 41.617188 14.417969 41.457031 14.4375 C 40.648438 14.546875 39.835938 14.617188 39.019531 14.65625 C 37.113281 14.746094 35.191406 14.648438 33.316406 14.371094 C 34.195312 11.148438 35.816406 8.9375 37.628906 8.9375 C 38.109375 8.9375 38.578125 9.09375 39.023438 9.382812 C 39.980469 10.007812 40.824219 11.253906 41.457031 12.898438 Z M 32.207031 15.085938 C 31.925781 16.394531 31.761719 17.835938 31.734375 19.355469 L 26.765625 19.355469 C 26.839844 17.492188 27.390625 15.691406 28.371094 14.109375 C 29.617188 14.519531 30.90625 14.847656 32.207031 15.085938 Z M 43.046875 24.519531 C 43.328125 23.207031 43.492188 21.769531 43.519531 20.25 L 48.488281 20.25 C 48.414062 22.113281 47.863281 23.914062 46.882812 25.496094 C 45.636719 25.082031 44.347656 24.753906 43.046875 24.519531 Z M 43.519531 19.355469 C 43.492188 17.835938 43.324219 16.394531 43.046875 15.085938 C 44.347656 14.847656 45.636719 14.519531 46.886719 14.109375 C 47.375 14.902344 47.757812 15.746094 48.027344 16.628906 C 48.296875 17.507812 48.453125 18.425781 48.488281 19.355469 Z M 43.519531 19.355469 " fill-opacity="1" fill-rule="nonzero"/></g><path fill="#000000" d="M 32.496094 53.738281 C 32.289062 53.738281 32.082031 53.660156 31.925781 53.503906 L 27.542969 49.121094 C 27.226562 48.808594 27.226562 48.296875 27.542969 47.980469 L 31.863281 43.660156 C 32.175781 43.347656 32.6875 43.347656 33 43.660156 C 33.316406 43.976562 33.316406 44.484375 33 44.800781 L 29.25 48.550781 L 33.0625 52.363281 C 33.378906 52.679688 33.378906 53.1875 33.0625 53.503906 C 32.90625 53.660156 32.699219 53.738281 32.496094 53.738281 Z M 32.496094 53.738281 " fill-opacity="1" fill-rule="nonzero"/><path fill="#000000" d="M 42.757812 53.738281 C 42.550781 53.738281 42.347656 53.660156 42.191406 53.503906 C 41.875 53.1875 41.875 52.679688 42.191406 52.363281 L 46.003906 48.550781 L 42.253906 44.800781 C 41.9375 44.488281 41.9375 43.976562 42.253906 43.660156 C 42.566406 43.347656 43.074219 43.347656 43.390625 43.660156 L 47.710938 47.980469 C 47.863281 48.132812 47.949219 48.335938 47.949219 48.550781 C 47.949219 48.765625 47.863281 48.96875 47.710938 49.121094 L 43.328125 53.503906 C 43.171875 53.660156 42.964844 53.738281 42.757812 53.738281 Z M 42.757812 53.738281 " fill-opacity="1" fill-rule="nonzero"/><path fill="#000000" d="M 35.992188 54.011719 C 35.898438 54.011719 35.808594 53.996094 35.714844 53.964844 C 35.296875 53.8125 35.082031 53.351562 35.234375 52.933594 L 38.503906 43.957031 C 38.65625 43.539062 39.117188 43.320312 39.535156 43.476562 C 39.953125 43.625 40.171875 44.089844 40.015625 44.507812 L 36.75 53.484375 C 36.628906 53.8125 36.320312 54.011719 35.992188 54.011719 Z M 35.992188 54.011719 " fill-opacity="1" fill-rule="nonzero"/><path fill="#000000" d="M 64.0625 46.980469 L 53.929688 46.980469 C 53.40625 46.980469 52.980469 47.402344 52.980469 47.925781 C 52.980469 48.449219 53.40625 48.875 53.929688 48.875 L 64.0625 48.875 C 64.585938 48.875 65.011719 48.449219 65.011719 47.925781 C 65.011719 47.402344 64.585938 46.980469 64.0625 46.980469 Z M 64.0625 46.980469 " fill-opacity="1" fill-rule="nonzero"/><path fill="#000000" d="M 21.324219 46.980469 L 11.1875 46.980469 C 10.664062 46.980469 10.242188 47.402344 10.242188 47.925781 C 10.242188 48.449219 10.664062 48.875 11.1875 48.875 L 21.324219 48.875 C 21.847656 48.875 22.269531 48.449219 22.269531 47.925781 C 22.269531 47.402344 21.847656 46.980469 21.324219 46.980469 Z M 21.324219 46.980469 " fill-opacity="1" fill-rule="nonzero"/></svg>