<svg xmlns="http://www.w3.org/2000/svg" xmlns:xlink="http://www.w3.org/1999/xlink" width="100" zoomAndPan="magnify" viewBox="0 0 75 74.999997" height="100" preserveAspectRatio="xMidYMid meet" version="1.0"><defs><clipPath id="95d1708d25"><path d="M 5.628906 25 L 71.628906 25 L 71.628906 62 L 5.628906 62 Z M 5.628906 25 " clip-rule="nonzero"/></clipPath><clipPath id="9666dd37c7"><path d="M 5.628906 51 L 71.628906 51 L 71.628906 62 L 5.628906 62 Z M 5.628906 51 " clip-rule="nonzero"/></clipPath><clipPath id="a798067718"><path d="M 31 63 L 46 63 L 46 73.613281 L 31 73.613281 Z M 31 63 " clip-rule="nonzero"/></clipPath><clipPath id="866d811851"><path d="M 26 72 L 51 72 L 51 73.613281 L 26 73.613281 Z M 26 72 " clip-rule="nonzero"/></clipPath><clipPath id="314ca098cc"><path d="M 17 3.863281 L 60 3.863281 L 60 15 L 17 15 Z M 17 3.863281 " clip-rule="nonzero"/></clipPath></defs><rect x="-7.5" width="90" fill="#ffffff" y="-7.5" height="89.999996" fill-opacity="1"/><rect x="-7.5" width="90" fill="#ffffff" y="-7.5" height="89.999996" fill-opacity="1"/><g clip-path="url(#95d1708d25)"><path fill="#000000" d="M 66.824219 61.722656 L 10.363281 61.722656 C 10.054688 61.722656 9.742188 61.691406 9.4375 61.628906 C 9.132812 61.566406 8.835938 61.476562 8.546875 61.359375 C 8.257812 61.238281 7.984375 61.089844 7.722656 60.917969 C 7.464844 60.742188 7.222656 60.546875 7.003906 60.324219 C 6.78125 60.105469 6.585938 59.863281 6.410156 59.605469 C 6.238281 59.34375 6.09375 59.070312 5.972656 58.78125 C 5.851562 58.492188 5.761719 58.195312 5.699219 57.886719 C 5.640625 57.582031 5.609375 57.273438 5.609375 56.960938 L 5.609375 29.820312 C 5.609375 29.507812 5.640625 29.199219 5.699219 28.890625 C 5.761719 28.585938 5.851562 28.289062 5.972656 28 C 6.09375 27.710938 6.238281 27.4375 6.410156 27.175781 C 6.585938 26.917969 6.78125 26.675781 7.003906 26.453125 C 7.222656 26.234375 7.464844 26.035156 7.722656 25.863281 C 7.984375 25.6875 8.257812 25.542969 8.546875 25.421875 C 8.835938 25.300781 9.132812 25.210938 9.4375 25.152344 C 9.742188 25.089844 10.054688 25.058594 10.363281 25.058594 L 18.433594 25.058594 C 18.632812 25.058594 18.800781 25.128906 18.945312 25.269531 C 19.085938 25.410156 19.15625 25.582031 19.15625 25.78125 L 19.15625 41.765625 C 19.15625 42.03125 19.207031 42.289062 19.308594 42.535156 C 19.410156 42.78125 19.554688 43 19.746094 43.1875 C 19.933594 43.375 20.148438 43.523438 20.394531 43.625 C 20.640625 43.726562 20.898438 43.777344 21.164062 43.777344 L 56.03125 43.777344 C 56.296875 43.777344 56.554688 43.726562 56.800781 43.625 C 57.046875 43.523438 57.261719 43.375 57.449219 43.1875 C 57.640625 43 57.785156 42.78125 57.886719 42.535156 C 57.988281 42.289062 58.039062 42.03125 58.039062 41.765625 L 58.039062 25.78125 C 58.039062 25.582031 58.109375 25.410156 58.25 25.269531 C 58.394531 25.128906 58.5625 25.058594 58.761719 25.058594 L 66.824219 25.058594 C 67.136719 25.058594 67.445312 25.089844 67.75 25.152344 C 68.058594 25.210938 68.355469 25.300781 68.640625 25.421875 C 68.929688 25.542969 69.203125 25.6875 69.464844 25.863281 C 69.722656 26.035156 69.964844 26.234375 70.183594 26.453125 C 70.40625 26.675781 70.601562 26.917969 70.777344 27.175781 C 70.949219 27.4375 71.097656 27.710938 71.214844 28 C 71.335938 28.289062 71.425781 28.585938 71.488281 28.890625 C 71.546875 29.199219 71.578125 29.507812 71.578125 29.820312 L 71.578125 56.960938 C 71.578125 57.273438 71.546875 57.582031 71.488281 57.886719 C 71.425781 58.195312 71.335938 58.492188 71.214844 58.78125 C 71.097656 59.070312 70.949219 59.34375 70.777344 59.605469 C 70.601562 59.863281 70.40625 60.105469 70.183594 60.324219 C 69.964844 60.546875 69.722656 60.742188 69.464844 60.917969 C 69.203125 61.089844 68.929688 61.238281 68.640625 61.359375 C 68.355469 61.476562 68.058594 61.566406 67.75 61.628906 C 67.445312 61.691406 67.136719 61.722656 66.824219 61.722656 Z M 10.363281 26.503906 C 9.925781 26.507812 9.503906 26.589844 9.097656 26.757812 C 8.691406 26.925781 8.335938 27.167969 8.023438 27.476562 C 7.714844 27.789062 7.476562 28.148438 7.308594 28.554688 C 7.140625 28.957031 7.054688 29.382812 7.054688 29.820312 L 7.054688 56.960938 C 7.054688 57.398438 7.140625 57.820312 7.308594 58.226562 C 7.476562 58.632812 7.714844 58.992188 8.023438 59.300781 C 8.335938 59.613281 8.695312 59.851562 9.097656 60.019531 C 9.503906 60.1875 9.925781 60.273438 10.363281 60.273438 L 66.824219 60.273438 C 67.261719 60.273438 67.683594 60.1875 68.089844 60.019531 C 68.496094 59.851562 68.851562 59.613281 69.164062 59.300781 C 69.472656 58.992188 69.710938 58.632812 69.878906 58.226562 C 70.050781 57.820312 70.132812 57.398438 70.132812 56.960938 L 70.132812 29.820312 C 70.132812 29.382812 70.050781 28.957031 69.878906 28.554688 C 69.710938 28.148438 69.472656 27.789062 69.164062 27.476562 C 68.851562 27.167969 68.496094 26.925781 68.089844 26.757812 C 67.683594 26.589844 67.261719 26.507812 66.824219 26.503906 L 59.484375 26.503906 L 59.484375 41.765625 C 59.484375 42.222656 59.398438 42.664062 59.222656 43.089844 C 59.046875 43.511719 58.796875 43.886719 58.472656 44.210938 C 58.148438 44.535156 57.773438 44.785156 57.351562 44.960938 C 56.929688 45.136719 56.488281 45.226562 56.03125 45.226562 L 21.164062 45.226562 C 20.707031 45.226562 20.265625 45.136719 19.84375 44.960938 C 19.421875 44.785156 19.046875 44.535156 18.722656 44.210938 C 18.398438 43.886719 18.148438 43.511719 17.972656 43.089844 C 17.796875 42.664062 17.710938 42.222656 17.710938 41.765625 L 17.710938 26.503906 Z M 10.363281 26.503906 " fill-opacity="1" fill-rule="nonzero"/></g><g clip-path="url(#9666dd37c7)"><path fill="#000000" d="M 71.578125 52.507812 L 71.578125 56.960938 C 71.578125 57.273438 71.546875 57.582031 71.488281 57.886719 C 71.425781 58.195312 71.335938 58.492188 71.214844 58.78125 C 71.097656 59.070312 70.949219 59.34375 70.777344 59.605469 C 70.601562 59.863281 70.40625 60.105469 70.183594 60.328125 C 69.964844 60.546875 69.722656 60.746094 69.464844 60.917969 C 69.207031 61.09375 68.929688 61.238281 68.644531 61.359375 C 68.355469 61.480469 68.058594 61.570312 67.75 61.628906 C 67.445312 61.691406 67.136719 61.722656 66.824219 61.722656 L 10.363281 61.722656 C 10.054688 61.722656 9.742188 61.691406 9.4375 61.628906 C 9.132812 61.570312 8.832031 61.480469 8.546875 61.359375 C 8.257812 61.238281 7.984375 61.09375 7.722656 60.917969 C 7.464844 60.746094 7.222656 60.546875 7.003906 60.328125 C 6.78125 60.105469 6.585938 59.863281 6.410156 59.605469 C 6.238281 59.34375 6.089844 59.070312 5.972656 58.78125 C 5.851562 58.492188 5.761719 58.195312 5.699219 57.886719 C 5.640625 57.582031 5.609375 57.273438 5.609375 56.960938 L 5.609375 52.515625 C 5.609375 52.3125 5.683594 52.140625 5.824219 52 C 5.964844 51.859375 6.136719 51.785156 6.339844 51.785156 L 70.855469 51.785156 C 71.054688 51.785156 71.226562 51.855469 71.367188 51.996094 C 71.507812 52.136719 71.578125 52.308594 71.578125 52.507812 Z M 71.578125 52.507812 " fill-opacity="1" fill-rule="nonzero"/></g><g clip-path="url(#a798067718)"><path fill="#000000" d="M 45.765625 73.195312 C 45.621094 73.386719 45.433594 73.484375 45.195312 73.484375 L 32 73.484375 C 31.761719 73.484375 31.574219 73.386719 31.429688 73.195312 C 31.285156 73.007812 31.246094 72.796875 31.308594 72.566406 L 33.910156 63.171875 L 43.277344 63.171875 L 45.886719 72.566406 C 45.949219 72.796875 45.910156 73.007812 45.765625 73.195312 Z M 45.765625 73.195312 " fill-opacity="1" fill-rule="nonzero"/></g><g clip-path="url(#866d811851)"><path fill="#000000" d="M 49.546875 73.484375 L 27.644531 73.484375 C 27.445312 73.484375 27.273438 73.414062 27.132812 73.273438 C 26.992188 73.132812 26.921875 72.960938 26.921875 72.761719 C 26.921875 72.5625 26.992188 72.390625 27.132812 72.25 C 27.273438 72.109375 27.445312 72.039062 27.644531 72.039062 L 49.546875 72.039062 C 49.75 72.039062 49.917969 72.109375 50.058594 72.25 C 50.199219 72.390625 50.273438 72.5625 50.273438 72.761719 C 50.273438 72.960938 50.199219 73.132812 50.058594 73.273438 C 49.917969 73.414062 49.75 73.484375 49.546875 73.484375 Z M 49.546875 73.484375 " fill-opacity="1" fill-rule="nonzero"/></g><path fill="#000000" d="M 58.753906 16.351562 L 18.433594 16.351562 C 18.183594 16.351562 17.941406 16.308594 17.710938 16.21875 L 17.710938 41.773438 C 17.710938 42.230469 17.796875 42.671875 17.972656 43.09375 C 18.148438 43.519531 18.398438 43.890625 18.722656 44.214844 C 19.046875 44.539062 19.421875 44.789062 19.84375 44.964844 C 20.265625 45.136719 20.707031 45.226562 21.164062 45.226562 L 56.03125 45.226562 C 56.488281 45.226562 56.929688 45.136719 57.351562 44.960938 C 57.773438 44.785156 58.144531 44.539062 58.46875 44.214844 C 58.792969 43.890625 59.042969 43.515625 59.21875 43.09375 C 59.394531 42.671875 59.484375 42.230469 59.484375 41.773438 L 59.484375 16.21875 C 59.25 16.308594 59.007812 16.351562 58.753906 16.351562 Z M 39.511719 37.242188 C 39.511719 37.5 39.464844 37.742188 39.367188 37.980469 C 39.269531 38.214844 39.128906 38.425781 38.949219 38.605469 C 38.769531 38.785156 38.558594 38.925781 38.324219 39.023438 C 38.089844 39.121094 37.84375 39.167969 37.589844 39.167969 L 25.878906 39.167969 C 25.621094 39.167969 25.378906 39.121094 25.140625 39.023438 C 24.90625 38.925781 24.699219 38.785156 24.519531 38.605469 C 24.335938 38.425781 24.199219 38.214844 24.101562 37.980469 C 24.003906 37.742188 23.953125 37.5 23.953125 37.242188 L 23.953125 21.433594 C 23.953125 21.179688 24.003906 20.933594 24.101562 20.699219 C 24.199219 20.460938 24.335938 20.253906 24.519531 20.074219 C 24.699219 19.890625 24.90625 19.753906 25.140625 19.65625 C 25.378906 19.558594 25.621094 19.507812 25.878906 19.507812 L 37.589844 19.507812 C 37.84375 19.507812 38.089844 19.558594 38.324219 19.65625 C 38.558594 19.753906 38.769531 19.890625 38.949219 20.074219 C 39.128906 20.253906 39.269531 20.460938 39.367188 20.699219 C 39.464844 20.933594 39.511719 21.179688 39.511719 21.433594 Z M 52.515625 39.167969 L 43.210938 39.167969 C 43.011719 39.167969 42.839844 39.097656 42.699219 38.957031 C 42.558594 38.816406 42.488281 38.644531 42.488281 38.445312 C 42.488281 38.246094 42.558594 38.074219 42.699219 37.933594 C 42.839844 37.792969 43.011719 37.722656 43.210938 37.722656 L 52.515625 37.722656 C 52.714844 37.722656 52.886719 37.792969 53.027344 37.933594 C 53.167969 38.074219 53.238281 38.246094 53.238281 38.445312 C 53.238281 38.644531 53.167969 38.816406 53.027344 38.957031 C 52.886719 39.097656 52.714844 39.167969 52.515625 39.167969 Z M 52.515625 34.617188 L 43.210938 34.617188 C 43.011719 34.617188 42.839844 34.546875 42.699219 34.402344 C 42.558594 34.261719 42.488281 34.09375 42.488281 33.890625 C 42.488281 33.691406 42.558594 33.523438 42.699219 33.378906 C 42.839844 33.238281 43.011719 33.167969 43.210938 33.167969 L 52.515625 33.167969 C 52.714844 33.167969 52.886719 33.238281 53.027344 33.378906 C 53.167969 33.523438 53.238281 33.691406 53.238281 33.890625 C 53.238281 34.09375 53.167969 34.261719 53.027344 34.402344 C 52.886719 34.546875 52.714844 34.617188 52.515625 34.617188 Z M 52.515625 30.0625 L 43.210938 30.0625 C 43.011719 30.0625 42.839844 29.992188 42.699219 29.851562 C 42.558594 29.707031 42.488281 29.539062 42.488281 29.339844 C 42.488281 29.136719 42.558594 28.96875 42.699219 28.828125 C 42.839844 28.683594 43.011719 28.613281 43.210938 28.613281 L 52.515625 28.613281 C 52.714844 28.613281 52.886719 28.683594 53.027344 28.828125 C 53.167969 28.96875 53.238281 29.136719 53.238281 29.339844 C 53.238281 29.539062 53.167969 29.707031 53.027344 29.851562 C 52.886719 29.992188 52.714844 30.0625 52.515625 30.0625 Z M 52.515625 25.507812 L 43.210938 25.507812 C 43.011719 25.507812 42.839844 25.4375 42.699219 25.296875 C 42.558594 25.15625 42.488281 24.984375 42.488281 24.785156 C 42.488281 24.585938 42.558594 24.414062 42.699219 24.273438 C 42.839844 24.132812 43.011719 24.0625 43.210938 24.0625 L 52.515625 24.0625 C 52.714844 24.0625 52.886719 24.132812 53.027344 24.273438 C 53.167969 24.414062 53.238281 24.585938 53.238281 24.785156 C 53.238281 24.984375 53.167969 25.15625 53.027344 25.296875 C 52.886719 25.4375 52.714844 25.507812 52.515625 25.507812 Z M 52.515625 20.957031 L 43.210938 20.957031 C 43.011719 20.957031 42.839844 20.882812 42.699219 20.742188 C 42.558594 20.601562 42.488281 20.429688 42.488281 20.230469 C 42.488281 20.03125 42.558594 19.859375 42.699219 19.71875 C 42.839844 19.578125 43.011719 19.507812 43.210938 19.507812 L 52.515625 19.507812 C 52.714844 19.507812 52.886719 19.578125 53.027344 19.71875 C 53.167969 19.859375 53.238281 20.03125 53.238281 20.230469 C 53.238281 20.429688 53.167969 20.601562 53.027344 20.742188 C 52.886719 20.882812 52.714844 20.957031 52.515625 20.957031 Z M 52.515625 20.957031 " fill-opacity="1" fill-rule="nonzero"/><path fill="#000000" d="M 25.875 20.957031 L 37.585938 20.957031 C 37.71875 20.957031 37.832031 21 37.925781 21.09375 C 38.019531 21.1875 38.066406 21.300781 38.066406 21.433594 L 38.066406 37.242188 C 38.066406 37.375 38.019531 37.488281 37.925781 37.582031 C 37.832031 37.675781 37.71875 37.722656 37.585938 37.722656 L 25.875 37.722656 C 25.746094 37.722656 25.632812 37.675781 25.539062 37.582031 C 25.445312 37.488281 25.398438 37.375 25.398438 37.242188 L 25.398438 21.433594 C 25.398438 21.300781 25.445312 21.1875 25.539062 21.097656 C 25.632812 21.003906 25.746094 20.957031 25.875 20.957031 Z M 25.875 20.957031 " fill-opacity="1" fill-rule="nonzero"/><g clip-path="url(#314ca098cc)"><path fill="#000000" d="M 56.03125 3.992188 L 21.164062 3.992188 C 20.707031 3.992188 20.269531 4.082031 19.84375 4.257812 C 19.421875 4.433594 19.050781 4.679688 18.726562 5.003906 C 18.402344 5.328125 18.152344 5.703125 17.976562 6.125 C 17.800781 6.546875 17.710938 6.988281 17.710938 7.445312 L 17.710938 14.179688 C 17.710938 14.378906 17.78125 14.546875 17.921875 14.691406 C 18.0625 14.832031 18.234375 14.902344 18.433594 14.902344 L 58.753906 14.902344 C 58.957031 14.902344 59.125 14.832031 59.265625 14.691406 C 59.40625 14.546875 59.476562 14.378906 59.476562 14.179688 L 59.476562 7.445312 C 59.476562 6.988281 59.390625 6.546875 59.214844 6.125 C 59.039062 5.703125 58.789062 5.328125 58.46875 5.003906 C 58.144531 4.683594 57.769531 4.433594 57.347656 4.257812 C 56.925781 4.082031 56.488281 3.992188 56.03125 3.992188 Z M 31.527344 10.167969 L 23.464844 10.167969 C 23.261719 10.167969 23.09375 10.097656 22.953125 9.957031 C 22.8125 9.816406 22.742188 9.644531 22.742188 9.445312 C 22.742188 9.246094 22.8125 9.074219 22.953125 8.933594 C 23.09375 8.792969 23.261719 8.722656 23.464844 8.722656 L 31.527344 8.722656 C 31.730469 8.722656 31.898438 8.792969 32.039062 8.933594 C 32.179688 9.074219 32.253906 9.246094 32.253906 9.445312 C 32.253906 9.644531 32.179688 9.816406 32.039062 9.957031 C 31.898438 10.097656 31.730469 10.167969 31.527344 10.167969 Z M 47.609375 10.167969 L 47.03125 10.167969 C 46.832031 10.167969 46.660156 10.097656 46.519531 9.957031 C 46.378906 9.816406 46.308594 9.644531 46.308594 9.445312 C 46.308594 9.246094 46.378906 9.074219 46.519531 8.933594 C 46.660156 8.792969 46.832031 8.722656 47.03125 8.722656 L 47.609375 8.722656 C 47.808594 8.722656 47.980469 8.792969 48.121094 8.933594 C 48.261719 9.074219 48.332031 9.246094 48.332031 9.445312 C 48.332031 9.644531 48.261719 9.816406 48.121094 9.957031 C 47.980469 10.097656 47.808594 10.167969 47.609375 10.167969 Z M 50.667969 10.167969 L 50.089844 10.167969 C 49.890625 10.167969 49.722656 10.097656 49.578125 9.957031 C 49.4375 9.816406 49.367188 9.644531 49.367188 9.445312 C 49.367188 9.246094 49.4375 9.074219 49.578125 8.933594 C 49.722656 8.792969 49.890625 8.722656 50.089844 8.722656 L 50.667969 8.722656 C 50.867188 8.722656 51.039062 8.792969 51.179688 8.933594 C 51.320312 9.074219 51.390625 9.246094 51.390625 9.445312 C 51.390625 9.644531 51.320312 9.816406 51.179688 9.957031 C 51.039062 10.097656 50.867188 10.167969 50.667969 10.167969 Z M 53.730469 10.167969 L 53.152344 10.167969 C 52.953125 10.167969 52.78125 10.097656 52.640625 9.957031 C 52.5 9.816406 52.429688 9.644531 52.429688 9.445312 C 52.429688 9.246094 52.5 9.074219 52.640625 8.933594 C 52.78125 8.792969 52.953125 8.722656 53.152344 8.722656 L 53.730469 8.722656 C 53.929688 8.722656 54.097656 8.792969 54.242188 8.933594 C 54.382812 9.074219 54.453125 9.246094 54.453125 9.445312 C 54.453125 9.644531 54.382812 9.816406 54.242188 9.957031 C 54.097656 10.097656 53.929688 10.167969 53.730469 10.167969 Z M 53.730469 10.167969 " fill-opacity="1" fill-rule="nonzero"/></g></svg>