<svg xmlns="http://www.w3.org/2000/svg" xmlns:xlink="http://www.w3.org/1999/xlink" width="100" zoomAndPan="magnify" viewBox="0 0 75 74.999997" height="100" preserveAspectRatio="xMidYMid meet" version="1.0"><defs><clipPath id="b4616ce22a"><path d="M 6.011719 5.972656 L 67.511719 5.972656 L 67.511719 68 L 6.011719 68 Z M 6.011719 5.972656 " clip-rule="nonzero"/></clipPath><clipPath id="ea77c6042e"><path d="M 18 50 L 55 50 L 55 73.472656 L 18 73.472656 Z M 18 50 " clip-rule="nonzero"/></clipPath></defs><rect x="-7.5" width="90" fill="#ffffff" y="-7.5" height="89.999996" fill-opacity="1"/><rect x="-7.5" width="90" fill="#ffffff" y="-7.5" height="89.999996" fill-opacity="1"/><g clip-path="url(#b4616ce22a)"><path fill="#78d1cc" d="M 67.519531 36.71875 C 67.519531 53.695312 53.753906 67.453125 36.773438 67.453125 C 19.792969 67.453125 6.027344 53.695312 6.027344 36.71875 C 6.023438 19.742188 19.792969 5.980469 36.773438 5.980469 C 53.753906 5.980469 67.519531 19.742188 67.519531 36.71875 " fill-opacity="1" fill-rule="nonzero"/></g><path fill="#ed451d" d="M 36.953125 63.089844 C 35.078125 63.089844 33.222656 62.738281 31.46875 62.089844 C 30.105469 61.589844 28.808594 60.507812 27.324219 60.589844 C 24.597656 60.738281 21.070312 60.972656 20.09375 57.609375 C 19.121094 54.269531 22.773438 52.117188 23.054688 49.003906 C 23.316406 46.125 18.863281 45.390625 20.039062 42.246094 C 20.292969 41.558594 20.875 40.941406 20.972656 40.191406 C 21.082031 39.355469 20.726562 38.636719 20.597656 37.839844 C 20.171875 35.1875 22.296875 31.488281 24.433594 30.023438 C 27.289062 28.070312 30.820312 27.617188 34.136719 26.980469 C 38.492188 26.140625 43.222656 24.886719 47.328125 26.6875 C 49.625 27.695312 52.496094 28.671875 53.238281 31.261719 C 54.023438 34.007812 55.054688 36.800781 53.46875 39.484375 C 52.578125 40.996094 51.027344 41.640625 51.613281 43.539062 C 52.046875 44.945312 53.523438 45.777344 53.882812 47.234375 C 54.695312 50.539062 49.816406 51.34375 51.167969 54.457031 C 51.863281 56.058594 52.851562 56.988281 52.226562 58.886719 C 51.769531 60.265625 50.59375 60.941406 49.1875 61.03125 C 48.097656 61.101562 47.066406 60.722656 45.964844 60.910156 C 45.203125 61.039062 44.589844 61.394531 43.878906 61.683594 C 41.714844 62.566406 39.292969 63.089844 36.953125 63.089844 " fill-opacity="1" fill-rule="nonzero"/><g clip-path="url(#ea77c6042e)"><path fill="#ffffff" d="M 54.714844 67.539062 C 53.191406 68.671875 51.558594 69.667969 49.835938 70.5 C 49.570312 70.625 49.308594 70.746094 49.042969 70.867188 C 45.296875 72.546875 41.144531 73.480469 36.773438 73.480469 C 32.402344 73.480469 28.25 72.546875 24.503906 70.867188 C 24.238281 70.746094 23.972656 70.625 23.710938 70.5 C 21.988281 69.664062 20.355469 68.671875 18.835938 67.539062 C 19.101562 61.597656 22.261719 56.40625 26.9375 53.339844 C 29.761719 51.488281 33.140625 50.410156 36.773438 50.410156 C 37.328125 50.410156 37.875 50.4375 38.414062 50.484375 C 41.421875 50.757812 44.214844 51.769531 46.609375 53.339844 C 48.761719 54.753906 50.59375 56.613281 51.96875 58.789062 C 53.582031 61.34375 54.566406 64.332031 54.714844 67.539062 " fill-opacity="1" fill-rule="nonzero"/></g><path fill="#fbd5c0" d="M 46.609375 53.339844 C 46.335938 55.414062 45.421875 57.285156 44.066406 58.75 C 42.253906 60.714844 39.660156 61.945312 36.773438 61.945312 C 32.152344 61.945312 28.265625 58.785156 27.164062 54.507812 C 27.066406 54.125 26.988281 53.738281 26.9375 53.339844 C 29.761719 51.488281 33.140625 50.410156 36.773438 50.410156 C 37.328125 50.410156 37.875 50.433594 38.417969 50.484375 C 38.511719 50.492188 38.605469 50.503906 38.695312 50.511719 C 38.753906 50.519531 38.8125 50.523438 38.871094 50.53125 C 38.933594 50.539062 39 50.550781 39.0625 50.558594 C 39.101562 50.5625 39.140625 50.566406 39.179688 50.574219 C 39.238281 50.578125 39.296875 50.589844 39.355469 50.597656 C 39.402344 50.601562 39.445312 50.609375 39.492188 50.617188 C 39.53125 50.621094 39.570312 50.628906 39.609375 50.636719 C 39.675781 50.644531 39.742188 50.65625 39.808594 50.667969 C 40.09375 50.714844 40.378906 50.769531 40.65625 50.832031 L 40.847656 50.875 C 40.882812 50.882812 40.917969 50.890625 40.953125 50.902344 C 41.019531 50.917969 41.089844 50.933594 41.152344 50.949219 C 41.164062 50.953125 41.175781 50.953125 41.183594 50.957031 C 41.265625 50.976562 41.351562 51 41.433594 51.023438 C 41.523438 51.042969 41.609375 51.070312 41.699219 51.09375 C 41.796875 51.121094 41.894531 51.152344 41.996094 51.179688 C 42.070312 51.203125 42.148438 51.226562 42.222656 51.253906 C 42.273438 51.269531 42.324219 51.285156 42.371094 51.300781 C 42.449219 51.324219 42.53125 51.351562 42.609375 51.378906 C 42.707031 51.414062 42.804688 51.445312 42.898438 51.480469 C 42.90625 51.484375 42.914062 51.488281 42.917969 51.488281 C 43.019531 51.527344 43.117188 51.5625 43.214844 51.601562 C 43.289062 51.628906 43.363281 51.65625 43.4375 51.6875 C 43.628906 51.765625 43.820312 51.84375 44.007812 51.925781 L 44.253906 52.039062 C 44.328125 52.070312 44.402344 52.105469 44.476562 52.140625 C 44.546875 52.175781 44.613281 52.207031 44.679688 52.238281 C 44.742188 52.269531 44.800781 52.300781 44.863281 52.332031 C 44.902344 52.351562 44.945312 52.371094 44.984375 52.390625 C 45.144531 52.476562 45.304688 52.5625 45.460938 52.648438 C 45.515625 52.679688 45.574219 52.710938 45.628906 52.742188 C 45.667969 52.765625 45.703125 52.785156 45.738281 52.804688 L 45.871094 52.882812 L 46.007812 52.964844 L 46.09375 53.015625 C 46.179688 53.066406 46.261719 53.117188 46.34375 53.167969 C 46.433594 53.226562 46.519531 53.28125 46.609375 53.339844 " fill-opacity="1" fill-rule="nonzero"/><path fill="#fbd5c0" d="M 40.230469 46.390625 L 40.230469 53.1875 C 40.230469 54.910156 38.824219 56.316406 37.105469 56.316406 L 36.441406 56.316406 C 34.722656 56.316406 33.316406 54.910156 33.316406 53.1875 L 33.316406 46.390625 C 33.316406 44.667969 34.722656 43.261719 36.441406 43.261719 L 37.105469 43.261719 C 38.824219 43.261719 40.230469 44.667969 40.230469 46.390625 " fill-opacity="1" fill-rule="nonzero"/><path fill="#f8a29e" d="M 40.230469 46.390625 L 40.230469 49.988281 C 39.203125 50.558594 38.113281 50.890625 37.007812 50.890625 C 35.699219 50.890625 34.457031 50.527344 33.316406 49.894531 L 33.316406 46.390625 C 33.316406 44.667969 34.722656 43.261719 36.441406 43.261719 L 37.105469 43.261719 C 38.824219 43.261719 40.230469 44.667969 40.230469 46.390625 " fill-opacity="1" fill-rule="nonzero"/><path fill="#fbd5c0" d="M 47.433594 42.175781 C 47.433594 42.175781 49.480469 41.476562 50.789062 39.195312 C 52.210938 36.71875 51.316406 35.175781 51.035156 34.839844 C 50.265625 33.925781 49.078125 34.511719 48.882812 34.839844 C 48.6875 35.167969 45.851562 40.3125 47.433594 42.175781 " fill-opacity="1" fill-rule="nonzero"/><path fill="#f8a29e" d="M 49.441406 35.652344 C 49.441406 35.652344 50.742188 35.816406 50.285156 37.644531 C 49.828125 39.472656 48.625 40.195312 46.992188 41.128906 C 45.363281 42.0625 47.808594 36.023438 49.441406 35.652344 " fill-opacity="1" fill-rule="nonzero"/><path fill="#fbd5c0" d="M 26.644531 42.175781 C 26.644531 42.175781 24.597656 41.476562 23.289062 39.195312 C 21.867188 36.71875 22.757812 35.175781 23.042969 34.839844 C 23.8125 33.925781 25 34.511719 25.195312 34.839844 C 25.390625 35.167969 28.226562 40.3125 26.644531 42.175781 " fill-opacity="1" fill-rule="nonzero"/><path fill="#f8a29e" d="M 24.636719 35.652344 C 24.636719 35.652344 23.339844 35.816406 23.796875 37.644531 C 24.25 39.472656 25.453125 40.195312 27.085938 41.128906 C 28.71875 42.0625 26.269531 36.023438 24.636719 35.652344 " fill-opacity="1" fill-rule="nonzero"/><path fill="#fbd5c0" d="M 49.441406 34.445312 C 49.441406 26.945312 43.902344 20.863281 37.066406 20.863281 C 30.234375 20.863281 24.691406 26.945312 24.691406 34.445312 C 24.691406 41.949219 30.234375 49.789062 37.066406 49.789062 C 43.488281 49.789062 49.441406 41.886719 49.441406 34.445312 " fill-opacity="1" fill-rule="nonzero"/><path fill="#ed451d" d="M 52.636719 31.894531 C 53.210938 30.535156 52.820312 28.878906 52.539062 27.546875 C 51.9375 24.710938 50.082031 22.019531 47.03125 21.402344 C 45.578125 21.109375 44.128906 20.8125 42.828125 19.910156 C 41.640625 19.085938 40.515625 17.980469 39.179688 17.414062 C 36.566406 16.3125 33.15625 17.074219 32.46875 20.152344 C 32.441406 20.28125 32.414062 20.417969 32.390625 20.558594 L 32.351562 20.128906 C 32.132812 21.820312 32.136719 22.980469 33.15625 24.429688 C 34.207031 25.917969 35.597656 26.207031 37.246094 26.386719 C 40.769531 26.773438 41.542969 29.039062 42.453125 31.96875 C 43.039062 33.84375 44.464844 35.925781 46.644531 35.5 C 47.664062 35.296875 48.5625 34.703125 49.554688 34.492188 C 50.65625 34.253906 51.035156 34.945312 51.8125 35.582031 C 51.804688 34.941406 51.484375 34.144531 51.65625 33.558594 C 51.824219 32.972656 52.398438 32.460938 52.636719 31.894531 " fill-opacity="1" fill-rule="nonzero"/><path fill="#ed451d" d="M 33.917969 22.472656 C 33.707031 21.867188 33.285156 21.207031 32.84375 20.71875 C 32.269531 20.085938 32.46875 20.152344 31.761719 19.933594 C 30.5 19.460938 29.5625 19.183594 28.238281 19.957031 C 27.140625 20.601562 26.558594 21.664062 26.261719 22.847656 C 25.875 24.371094 25.5 25.113281 24.226562 26.195312 C 23.214844 27.054688 22.519531 28.097656 22.042969 29.328125 C 21.496094 30.757812 21.132812 32.457031 21.191406 34.023438 C 21.230469 35.070312 21.496094 37.34375 22.25 38.027344 C 22.425781 36.355469 22.917969 35.425781 24.59375 34.980469 C 26.023438 34.605469 27.25 34.410156 27.652344 32.753906 C 28.019531 31.265625 28.113281 30.019531 29.511719 28.960938 C 30.667969 28.085938 32.277344 27.78125 33.253906 26.691406 C 34.265625 25.558594 34.410156 23.863281 33.917969 22.472656 " fill-opacity="1" fill-rule="nonzero"/></svg>